<?xml version="1.0" encoding="UTF-8" standalone="no"?>
<svg
   xmlns:dc="http://purl.org/dc/elements/1.1/"
   xmlns:cc="http://creativecommons.org/ns#"
   xmlns:rdf="http://www.w3.org/1999/02/22-rdf-syntax-ns#"
   xmlns:svg="http://www.w3.org/2000/svg"
   xmlns="http://www.w3.org/2000/svg"
   xmlns:sodipodi="http://sodipodi.sourceforge.net/DTD/sodipodi-0.dtd"
   xmlns:inkscape="http://www.inkscape.org/namespaces/inkscape"
   width="51.660583mm"
   height="14.280541mm"
   viewBox="0 0 183.04931 50.600344"
   id="svg2"
   version="1.1"
   inkscape:version="1.0.2 (e86c870879, 2021-01-15)"
   sodipodi:docname="ecoevolity-logo-compact.svg">
  <defs
     id="defs4" />
  <sodipodi:namedview
     id="base"
     pagecolor="#ffffff"
     bordercolor="#666666"
     borderopacity="1.0"
     inkscape:pageopacity="0.0"
     inkscape:pageshadow="2"
     inkscape:zoom="5.6"
     inkscape:cx="93.162978"
     inkscape:cy="16.534109"
     inkscape:document-units="px"
     inkscape:current-layer="layer1"
     showgrid="false"
     fit-margin-top="0"
     fit-margin-left="0"
     fit-margin-right="0"
     fit-margin-bottom="0"
     inkscape:window-width="1920"
     inkscape:window-height="1016"
     inkscape:window-x="0"
     inkscape:window-y="27"
     inkscape:window-maximized="1"
     inkscape:snap-text-baseline="true"
     inkscape:document-rotation="0" />
  <metadata
     id="metadata7">
    <rdf:RDF>
      <cc:Work
         rdf:about="">
        <dc:format>image/svg+xml</dc:format>
        <dc:type
           rdf:resource="http://purl.org/dc/dcmitype/StillImage" />
        <dc:title />
      </cc:Work>
    </rdf:RDF>
  </metadata>
  <g
     inkscape:label="Layer 1"
     inkscape:groupmode="layer"
     id="layer1"
     transform="translate(-170.73581,-497.19897)">
    <g
       aria-label="Ecoevolity
Estimating evolutionary coevality"
       id="text4136"
       style="font-style:normal;font-weight:normal;line-height:0%;font-family:sans-serif;letter-spacing:0px;word-spacing:0px;fill:#000000;fill-opacity:1;stroke:none;stroke-width:1px;stroke-linecap:butt;stroke-linejoin:miter;stroke-opacity:1">
      <path
         d="m 175.26462,498.27563 h 15.96191 l -0.87158,4.97315 h -10.04883 l -0.8374,4.75098 h 9.46777 l -0.90576,4.97314 h -9.43359 l -1.02539,5.84473 h 10.37353 l -0.8374,4.97314 h -16.3208 z"
         style="font-style:oblique;font-variant:normal;font-weight:bold;font-stretch:semi-condensed;font-size:35px;line-height:1.2;font-family:'DejaVu Sans';-inkscape-font-specification:'DejaVu Sans Bold Oblique Semi-Condensed';text-align:center;text-anchor:middle;fill:#32a251;fill-opacity:1"
         id="path1174" />
      <path
         d="m 209.93991,505.24829 -0.87158,4.99024 q -1.11084,-0.82032 -2.1875,-1.24756 -1.07666,-0.42725 -2.10205,-0.42725 -2.7002,0 -4.40918,2.0166 -1.70899,1.99951 -1.70899,5.12696 0,1.99951 1.05957,3.11035 1.07666,1.09375 3.00782,1.09375 1.28174,0 2.52929,-0.42725 1.24756,-0.42725 2.37549,-1.26465 l -0.85449,5.00733 q -1.36719,0.52978 -2.75147,0.78613 -1.38427,0.27344 -2.78564,0.27344 -4.05029,0 -6.25488,-2.0166 -2.1875,-2.0337 -2.1875,-5.75928 0,-2.34131 0.80322,-4.5459 0.82031,-2.20459 2.32422,-3.96484 1.6748,-1.93116 3.84521,-2.8711 2.17041,-0.93994 5.00733,-0.93994 1.29883,0 2.58056,0.27344 1.29883,0.25635 2.58057,0.78613 z"
         style="font-style:oblique;font-variant:normal;font-weight:bold;font-stretch:semi-condensed;font-size:35px;line-height:1.2;font-family:'DejaVu Sans';-inkscape-font-specification:'DejaVu Sans Bold Oblique Semi-Condensed';text-align:center;text-anchor:middle;fill:#39737c;fill-opacity:1"
         id="path1176" />
      <path
         d="m 222.10788,508.56372 q -2.13623,0 -3.52051,2.15332 -1.38428,2.15332 -1.38428,5.48584 0,1.81152 0.73487,2.76856 0.75195,0.93994 2.1875,0.93994 2.13623,0 3.52051,-2.15332 1.38427,-2.17041 1.38427,-5.52002 0,-1.79444 -0.75195,-2.73438 -0.73486,-0.93994 -2.17041,-0.93994 z m 0.44434,-4.375 q 3.84521,0 6.0498,2.17041 2.20459,2.17041 2.20459,5.91309 0,2.17041 -0.70068,4.22119 -0.6836,2.03369 -2.01661,3.72558 -1.55517,2.01661 -3.70849,3.042 -2.13623,1.02539 -4.76807,1.02539 -3.79394,0 -5.98144,-2.17041 -2.1875,-2.17041 -2.1875,-5.91309 0,-2.15332 0.70068,-4.2041 0.70068,-2.06787 2.03369,-3.77686 1.53809,-1.98242 3.65723,-3.00781 2.13623,-1.02539 4.7168,-1.02539 z"
         style="font-style:oblique;font-variant:normal;font-weight:bold;font-stretch:semi-condensed;font-size:35px;line-height:1.2;font-family:'DejaVu Sans';-inkscape-font-specification:'DejaVu Sans Bold Oblique Semi-Condensed';text-align:center;text-anchor:middle;fill:#39737c;fill-opacity:1"
         id="path1178" />
      <path
         d="m 251.74167,514.93823 -0.18799,0.97412 h -12.88574 q 0,0.10254 -0.0171,0.30762 -0.0171,0.18799 -0.0171,0.29053 0,1.86279 1.0083,2.78564 1.0083,0.92285 3.0249,0.92285 1.74317,0 3.67432,-0.58105 1.93115,-0.58106 4.05029,-1.72607 l -0.85449,4.75097 q -1.99951,0.82031 -3.99902,1.21338 -1.98243,0.41016 -4.0503,0.41016 -4.0332,0 -6.2207,-2.06787 -2.1875,-2.06788 -2.1875,-5.84473 0,-2.1875 0.68359,-4.23828 0.70069,-2.06787 2.05078,-3.77686 1.58936,-2.05078 3.79395,-3.11035 2.20459,-1.05957 4.88769,-1.05957 3.50342,0 5.5542,2.06787 2.05079,2.06787 2.05079,5.57129 0,0.68359 -0.0855,1.45264 -0.0854,0.75195 -0.27344,1.65771 z m -5.19531,-2.80273 q 0.0513,-0.22217 0.0684,-0.44434 0.0171,-0.23926 0.0171,-0.46142 0,-1.36719 -0.73487,-2.17041 -0.73486,-0.80323 -1.99951,-0.80323 -1.60644,0 -2.75146,0.99121 -1.12793,0.97413 -1.72608,2.88819 z"
         style="font-style:oblique;font-variant:normal;font-weight:bold;font-stretch:semi-condensed;font-size:35px;line-height:1.2;font-family:'DejaVu Sans';-inkscape-font-specification:'DejaVu Sans Bold Oblique Semi-Condensed';text-align:center;text-anchor:middle;fill:#b85a0d;fill-opacity:1"
         id="path1180" />
      <path
         d="m 255.27927,504.65015 h 5.07568 l 2.23877,13.36425 6.47705,-13.36425 h 5.58838 l -10.11719,19.14062 h -5.82764 z"
         style="font-style:oblique;font-variant:normal;font-weight:bold;font-stretch:semi-condensed;font-size:35px;line-height:1.2;font-family:'DejaVu Sans';-inkscape-font-specification:'DejaVu Sans Bold Oblique Semi-Condensed';text-align:center;text-anchor:middle;fill:#b85a0d;fill-opacity:1"
         id="path1182" />
      <path
         d="m 285.63083,508.56372 q -2.13623,0 -3.52051,2.15332 -1.38428,2.15332 -1.38428,5.48584 0,1.81152 0.73487,2.76856 0.75195,0.93994 2.1875,0.93994 2.13623,0 3.5205,-2.15332 1.38428,-2.17041 1.38428,-5.52002 0,-1.79444 -0.75195,-2.73438 -0.73486,-0.93994 -2.17041,-0.93994 z m 0.44433,-4.375 q 3.84522,0 6.04981,2.17041 2.20459,2.17041 2.20459,5.91309 0,2.17041 -0.70068,4.22119 -0.6836,2.03369 -2.01661,3.72558 -1.55517,2.01661 -3.70849,3.042 -2.13623,1.02539 -4.76807,1.02539 -3.79394,0 -5.98144,-2.17041 -2.1875,-2.17041 -2.1875,-5.91309 0,-2.15332 0.70068,-4.2041 0.70068,-2.06787 2.03369,-3.77686 1.53809,-1.98242 3.65723,-3.00781 2.13623,-1.02539 4.71679,-1.02539 z"
         style="font-style:oblique;font-variant:normal;font-weight:bold;font-stretch:semi-condensed;font-size:35px;line-height:1.2;font-family:'DejaVu Sans';-inkscape-font-specification:'DejaVu Sans Bold Oblique Semi-Condensed';text-align:center;text-anchor:middle;fill:#b85a0d;fill-opacity:1"
         id="path1184" />
      <path
         d="m 301.06296,497.19897 h 5.53711 l -4.64844,26.5918 h -5.52002 z"
         style="font-style:oblique;font-variant:normal;font-weight:bold;font-stretch:semi-condensed;font-size:35px;line-height:1.2;font-family:'DejaVu Sans';-inkscape-font-specification:'DejaVu Sans Bold Oblique Semi-Condensed';text-align:center;text-anchor:middle;fill:#39737c;fill-opacity:1"
         id="path1186" />
      <path
         d="m 310.56491,504.65015 h 5.53711 l -3.3667,19.14062 h -5.52002 z m 1.28174,-7.45118 h 5.53711 l -0.87158,4.99024 h -5.5542 z"
         style="font-style:oblique;font-variant:normal;font-weight:bold;font-stretch:semi-condensed;font-size:35px;line-height:1.2;font-family:'DejaVu Sans';-inkscape-font-specification:'DejaVu Sans Bold Oblique Semi-Condensed';text-align:center;text-anchor:middle;fill:#39737c;fill-opacity:1"
         id="path1188" />
      <path
         d="m 328.35544,499.21558 -0.93994,5.43457 h 5.63965 l -0.78614,4.375 h -5.63965 l -1.40136,8.10058 q -0.0684,0.27344 -0.10254,0.46143 -0.0171,0.18799 -0.0171,0.35888 0,0.78614 0.46142,1.12793 0.47852,0.3418 1.58936,0.3418 h 2.854 l -0.78613,4.375 h -4.63135 q -2.49511,0 -3.81103,-1.16211 -1.29883,-1.16211 -1.29883,-3.34961 0,-0.47851 0.0342,-1.02539 0.0513,-0.54687 0.15381,-1.11084 l 1.41845,-8.11767 h -2.71728 l 0.75195,-4.375 h 2.75147 l 0.93994,-5.43457 z"
         style="font-style:oblique;font-variant:normal;font-weight:bold;font-stretch:semi-condensed;font-size:35px;line-height:1.2;font-family:'DejaVu Sans';-inkscape-font-specification:'DejaVu Sans Bold Oblique Semi-Condensed';text-align:center;text-anchor:middle;fill:#39737c;fill-opacity:1"
         id="path1190" />
      <path
         d="m 334.16599,504.65015 h 5.19531 l 2.3584,13.26172 6.11816,-13.26172 h 5.87891 l -10.90332,20.95214 q -1.82862,3.5376 -3.38379,4.63135 -1.55518,1.11084 -4.01612,1.11084 h -3.33252 l 0.56397,-4.01611 h 1.74316 q 1.3501,0 2.10205,-0.5127 0.75196,-0.4956 1.33301,-1.76025 l 0.49561,-1.02539 z"
         style="font-style:oblique;font-variant:normal;font-weight:bold;font-stretch:semi-condensed;font-size:35px;line-height:1.2;font-family:'DejaVu Sans';-inkscape-font-specification:'DejaVu Sans Bold Oblique Semi-Condensed';text-align:center;text-anchor:middle;fill:#39737c;fill-opacity:1"
         id="path1192" />
      <path
         d="m 173.25565,537.17005 h 5.1361 v 1.59851 h -3.22998 v 1.5271 h 3.03772 v 1.59851 h -3.03772 v 1.87866 h 3.33985 v 1.59851 h -5.24597 z"
         style="font-style:normal;font-variant:normal;font-weight:bold;font-stretch:semi-condensed;font-size:11.25px;line-height:1.2;font-family:'DejaVu Sans';-inkscape-font-specification:'DejaVu Sans Bold Semi-Condensed';text-align:center;text-anchor:middle;fill:#32a251;fill-opacity:1"
         id="path1194" />
      <path
         d="m 183.72562,539.40027 v 0.95581 q -0.38453,-0.21973 -0.80201,-0.32959 -0.41198,-0.10986 -0.85693,-0.10986 -0.67566,0 -1.01623,0.23071 -0.34058,0.23071 -0.34058,0.69214 0,0.35156 0.2417,0.55481 0.24719,0.19775 0.97778,0.37903 l 0.30762,0.0769 q 0.97229,0.23071 1.37878,0.65369 0.4065,0.41748 0.4065,1.17004 0,0.85693 -0.60974,1.35681 -0.60975,0.49988 -1.67542,0.49988 -0.44495,0 -0.92834,-0.0989 -0.4834,-0.0934 -1.01624,-0.28564 v -1.0437 q 0.50537,0.29114 0.99426,0.43945 0.4889,0.14282 0.9668,0.14282 0.6427,0 0.98877,-0.2417 0.34607,-0.24719 0.34607,-0.69213 0,-0.41199 -0.25269,-0.63172 -0.24719,-0.21972 -1.09314,-0.42297 l -0.31311,-0.0824 q -0.84594,-0.19775 -1.22497,-0.60425 -0.37354,-0.41198 -0.37354,-1.1261 0,-0.86792 0.55481,-1.34033 0.55481,-0.47241 1.57105,-0.47241 0.50537,0 0.95032,0.0824 0.44494,0.0824 0.81848,0.24719 z"
         style="font-size:11.25px;line-height:1.2;text-align:center;text-anchor:middle"
         id="path1196" />
      <path
         d="m 186.37332,537.47217 v 1.74683 h 1.87317 v 0.78552 h -1.87317 v 3.33984 q 0,0.75256 0.18128,0.9668 0.18676,0.21423 0.75256,0.21423 h 0.93933 v 0.84595 h -0.93933 q -1.04919,0 -1.4502,-0.43396 -0.401,-0.43945 -0.401,-1.59302 v -3.33984 h -0.66467 V 539.219 h 0.66467 v -1.74683 z"
         style="font-size:11.25px;line-height:1.2;text-align:center;text-anchor:middle"
         id="path1198" />
      <path
         d="m 189.43851,539.219 h 0.90637 v 6.15234 h -0.90637 z m 0,-2.39502 h 0.90637 v 1.2799 h -0.90637 z"
         style="font-size:11.25px;line-height:1.2;text-align:center;text-anchor:middle"
         id="path1200" />
      <path
         d="m 196.55765,540.40003 q 0.34607,-0.68116 0.81848,-1.00525 0.47241,-0.3241 1.11511,-0.3241 0.86792,0 1.33484,0.67566 0.47241,0.67017 0.47241,1.91162 v 3.71338 h -0.91736 v -3.68042 q 0,-0.8844 -0.28015,-1.31287 -0.28015,-0.42846 -0.86242,-0.42846 -0.70313,0 -1.11512,0.52185 -0.41198,0.52185 -0.41198,1.42273 v 3.47717 h -0.91187 v -3.68042 q 0,-0.88989 -0.28564,-1.31287 -0.28015,-0.42846 -0.86792,-0.42846 -0.69764,0 -1.10962,0.52734 -0.4065,0.52185 -0.4065,1.41724 v 3.47717 h -0.91736 V 539.219 h 0.91736 v 0.95581 q 0.31311,-0.5658 0.74707,-0.83497 0.43396,-0.26916 1.03272,-0.26916 0.60425,0 1.02722,0.34058 0.42297,0.34057 0.62073,0.98877 z"
         style="font-size:11.25px;line-height:1.2;text-align:center;text-anchor:middle"
         id="path1202" />
      <path
         d="m 204.62711,542.27869 q -1.10413,0 -1.5326,0.28015 -0.42297,0.28015 -0.42297,0.95581 0,0.53833 0.3186,0.85693 0.31861,0.31311 0.86792,0.31311 0.75806,0 1.21399,-0.59326 0.45593,-0.59875 0.45593,-1.58752 v -0.22522 z m 1.81274,-0.41748 v 3.51013 h -0.91187 v -0.93384 q -0.30761,0.5603 -0.77453,0.82947 -0.46143,0.26367 -1.13709,0.26367 -0.85144,0 -1.35131,-0.52734 -0.49988,-0.53284 -0.49988,-1.42273 0,-1.03821 0.62072,-1.56555 0.62623,-0.52735 1.86768,-0.52735 h 1.27441 v -0.0989 q 0,-0.69764 -0.41198,-1.07667 -0.41199,-0.38452 -1.15906,-0.38452 -0.47241,0 -0.92285,0.12635 -0.45044,0.12634 -0.86792,0.37902 v -0.93383 q 0.49988,-0.21424 0.9668,-0.31861 0.47241,-0.10986 0.91735,-0.10986 1.20301,0 1.79627,0.69214 0.59326,0.69214 0.59326,2.09839 z"
         style="font-size:11.25px;line-height:1.2;text-align:center;text-anchor:middle"
         id="path1204" />
      <path
         d="m 209.2139,537.47217 v 1.74683 h 1.87317 v 0.78552 h -1.87317 v 3.33984 q 0,0.75256 0.18127,0.9668 0.18677,0.21423 0.75257,0.21423 h 0.93933 v 0.84595 h -0.93933 q -1.0492,0 -1.4502,-0.43396 -0.401,-0.43945 -0.401,-1.59302 v -3.33984 h -0.66467 V 539.219 h 0.66467 v -1.74683 z"
         style="font-size:11.25px;line-height:1.2;text-align:center;text-anchor:middle"
         id="path1206" />
      <path
         d="m 212.27908,539.219 h 0.90638 v 6.15234 h -0.90638 z m 0,-2.39502 h 0.90638 v 1.2799 h -0.90638 z"
         style="font-size:11.25px;line-height:1.2;text-align:center;text-anchor:middle"
         id="path1208" />
      <path
         d="m 219.69485,541.65796 v 3.71338 h -0.91186 v -3.68042 q 0,-0.87341 -0.30762,-1.30737 -0.30761,-0.43396 -0.91736,-0.43396 -0.73608,0 -1.16455,0.52185 -0.42297,0.52185 -0.42297,1.42273 v 3.47717 h -0.91736 V 539.219 h 0.91736 v 0.95581 q 0.3241,-0.55481 0.76355,-0.82947 0.44495,-0.27466 1.02722,-0.27466 0.95032,0 1.43921,0.65918 0.49438,0.65369 0.49438,1.9281 z"
         style="font-size:11.25px;line-height:1.2;text-align:center;text-anchor:middle"
         id="path1210" />
      <path
         d="m 225.14957,542.22376 q 0,-1.09864 -0.41199,-1.70288 -0.40649,-0.60425 -1.14258,-0.60425 -0.73059,0 -1.13708,0.60425 -0.4065,0.60424 -0.4065,1.70288 0,1.09314 0.4065,1.69738 0.40649,0.60425 1.13708,0.60425 0.73609,0 1.14258,-0.60425 0.41199,-0.60424 0.41199,-1.69738 z m 0.91186,2.38403 q 0,1.57104 -0.63171,2.33459 -0.62622,0.76905 -1.92261,0.76905 -0.4779,0 -0.90637,-0.0824 -0.42298,-0.0769 -0.82398,-0.2417 v -0.98328 q 0.401,0.2417 0.79102,0.35706 0.39001,0.11536 0.79651,0.11536 0.89538,0 1.34033,-0.52185 0.44495,-0.51636 0.44495,-1.56556 v -0.49987 q -0.28015,0.54382 -0.71961,0.81298 -0.43945,0.26917 -1.05469,0.26917 -1.02172,0 -1.64245,-0.86243 -0.62073,-0.86242 -0.62073,-2.28515 0,-1.42823 0.62073,-2.29065 0.62073,-0.86243 1.64245,-0.86243 0.61524,0 1.05469,0.26916 0.43946,0.26917 0.71961,0.81299 V 539.219 h 0.91186 z"
         style="font-size:11.25px;line-height:1.2;text-align:center;text-anchor:middle"
         id="path1212" />
      <path
         d="m 236.56985,542.27869 v 0.5603 h -4.13635 q 0.0604,0.69214 0.44495,1.03821 0.39001,0.34607 1.08215,0.34607 0.5603,0 1.14258,-0.18128 0.58777,-0.18676 1.203,-0.5603 v 1.51611 q -0.62622,0.26368 -1.25793,0.39551 -0.62622,0.13733 -1.25244,0.13733 -1.50513,0 -2.34009,-0.84595 -0.82947,-0.85144 -0.82947,-2.38403 0,-1.50513 0.81848,-2.36755 0.81848,-0.86243 2.2522,-0.86243 1.30737,0 2.0874,0.87341 0.78552,0.87342 0.78552,2.3346 z m -1.81823,-0.65369 q 0,-0.5603 -0.29663,-0.90088 -0.29114,-0.34607 -0.76905,-0.34607 -0.51086,0 -0.83496,0.3241 -0.3186,0.3186 -0.401,0.92285 z"
         style="font-style:normal;font-variant:normal;font-weight:bold;font-stretch:semi-condensed;font-size:11.25px;line-height:1.2;font-family:'DejaVu Sans';-inkscape-font-specification:'DejaVu Sans Bold Semi-Condensed';text-align:center;text-anchor:middle;fill:#b85a0d;fill-opacity:1"
         id="path1214" />
      <path
         d="m 237.21255,539.219 h 1.7688 l 1.37879,4.2517 1.37329,-4.2517 h 1.77429 l -2.17529,6.15234 h -1.94458 z"
         style="font-style:normal;font-variant:normal;font-weight:bold;font-stretch:semi-condensed;font-size:11.25px;line-height:1.2;font-family:'DejaVu Sans';-inkscape-font-specification:'DejaVu Sans Bold Semi-Condensed';text-align:center;text-anchor:middle;fill:#b85a0d;fill-opacity:1"
         id="path1216" />
      <path
         d="m 247.1387,540.47693 q -0.58777,0 -0.89538,0.47241 -0.30762,0.46692 -0.30762,1.35132 0,0.8844 0.30762,1.35681 0.30761,0.46692 0.89538,0.46692 0.58228,0 0.8844,-0.46692 0.30762,-0.47241 0.30762,-1.35681 0,-0.8844 -0.30762,-1.35132 -0.30212,-0.47241 -0.8844,-0.47241 z m 0,-1.40625 q 1.43372,0 2.23572,0.85693 0.802,0.85694 0.802,2.37305 0,1.51611 -0.802,2.37305 -0.802,0.85693 -2.23572,0.85693 -1.42822,0 -2.24121,-0.85693 -0.80749,-0.85694 -0.80749,-2.37305 0,-1.51611 0.80749,-2.37305 0.81299,-0.85693 2.24121,-0.85693 z"
         style="font-style:normal;font-variant:normal;font-weight:bold;font-stretch:semi-condensed;font-size:11.25px;line-height:1.2;font-family:'DejaVu Sans';-inkscape-font-specification:'DejaVu Sans Bold Semi-Condensed';text-align:center;text-anchor:middle;fill:#b85a0d;fill-opacity:1"
         id="path1218" />
      <path
         d="m 251.56619,536.82398 h 0.90637 v 8.54736 h -0.90637 z"
         style="font-size:11.25px;line-height:1.2;text-align:center;text-anchor:middle"
         id="path1220" />
      <path
         d="M 254.28531,542.94336 V 539.219 h 0.90637 v 3.68591 q 0,0.87341 0.30762,1.31286 0.30762,0.43396 0.91736,0.43396 0.74157,0 1.16455,-0.52185 0.42846,-0.52185 0.42846,-1.42273 V 539.219 h 0.91187 v 6.15234 h -0.91187 v -0.94483 q -0.32959,0.56031 -0.76904,0.83497 -0.43396,0.26916 -1.01623,0.26916 -0.95032,0 -1.44471,-0.65918 -0.49438,-0.65918 -0.49438,-1.9281 z m 2.28516,-3.87268 z"
         style="font-size:11.25px;line-height:1.2;text-align:center;text-anchor:middle"
         id="path1222" />
      <path
         d="m 261.69559,537.47217 v 1.74683 h 1.87317 v 0.78552 h -1.87317 v 3.33984 q 0,0.75256 0.18127,0.9668 0.18677,0.21423 0.75257,0.21423 h 0.93933 v 0.84595 h -0.93933 q -1.0492,0 -1.4502,-0.43396 -0.401,-0.43945 -0.401,-1.59302 v -3.33984 h -0.66467 V 539.219 h 0.66467 v -1.74683 z"
         style="font-size:11.25px;line-height:1.2;text-align:center;text-anchor:middle"
         id="path1224" />
      <path
         d="m 264.76077,539.219 h 0.90637 v 6.15234 h -0.90637 z m 0,-2.39502 h 0.90637 v 1.2799 h -0.90637 z"
         style="font-size:11.25px;line-height:1.2;text-align:center;text-anchor:middle"
         id="path1226" />
      <path
         d="m 269.71561,539.92761 q -0.73059,0 -1.15906,0.63721 -0.42297,0.63171 -0.42297,1.73584 0,1.10413 0.42297,1.74133 0.42297,0.63172 1.15906,0.63172 0.73059,0 1.15356,-0.63721 0.42297,-0.63721 0.42297,-1.73584 0,-1.09314 -0.42297,-1.73035 -0.42297,-0.6427 -1.15356,-0.6427 z m 0,-0.85693 q 1.18652,0 1.86218,0.85693 0.68115,0.85694 0.68115,2.37305 0,1.51062 -0.68115,2.37305 -0.67566,0.85693 -1.86218,0.85693 -1.19202,0 -1.86768,-0.85693 -0.67017,-0.86243 -0.67017,-2.37305 0,-1.51611 0.67017,-2.37305 0.67566,-0.85693 1.86768,-0.85693 z"
         style="font-size:11.25px;line-height:1.2;text-align:center;text-anchor:middle"
         id="path1228" />
      <path
         d="m 278.36734,541.65796 v 3.71338 h -0.91187 v -3.68042 q 0,-0.87341 -0.30761,-1.30737 -0.30762,-0.43396 -0.91736,-0.43396 -0.73608,0 -1.16455,0.52185 -0.42298,0.52185 -0.42298,1.42273 v 3.47717 h -0.91735 V 539.219 h 0.91735 v 0.95581 q 0.3241,-0.55481 0.76355,-0.82947 0.44495,-0.27466 1.02723,-0.27466 0.95031,0 1.43921,0.65918 0.49438,0.65369 0.49438,1.9281 z"
         style="font-size:11.25px;line-height:1.2;text-align:center;text-anchor:middle"
         id="path1230" />
      <path
         d="m 282.69595,542.27869 q -1.10412,0 -1.53259,0.28015 -0.42297,0.28015 -0.42297,0.95581 0,0.53833 0.3186,0.85693 0.3186,0.31311 0.86792,0.31311 0.75806,0 1.21399,-0.59326 0.45593,-0.59875 0.45593,-1.58752 v -0.22522 z m 1.81275,-0.41748 v 3.51013 h -0.91187 v -0.93384 q -0.30761,0.5603 -0.77453,0.82947 -0.46143,0.26367 -1.13709,0.26367 -0.85144,0 -1.35132,-0.52734 -0.49988,-0.53284 -0.49988,-1.42273 0,-1.03821 0.62073,-1.56555 0.62622,-0.52735 1.86768,-0.52735 h 1.27441 v -0.0989 q 0,-0.69764 -0.41199,-1.07667 -0.41198,-0.38452 -1.15905,-0.38452 -0.47241,0 -0.92285,0.12635 -0.45044,0.12634 -0.86792,0.37902 v -0.93383 q 0.49987,-0.21424 0.96679,-0.31861 0.47241,-0.10986 0.91736,-0.10986 1.203,0 1.79627,0.69214 0.59326,0.69214 0.59326,2.09839 z"
         style="font-size:11.25px;line-height:1.2;text-align:center;text-anchor:middle"
         id="path1232" />
      <path
         d="m 289.58987,540.16382 q -0.1538,-0.0989 -0.33508,-0.14282 -0.18127,-0.0494 -0.39551,-0.0494 -0.77453,0 -1.18652,0.5603 -0.41199,0.55481 -0.41199,1.59851 v 3.24097 h -0.91736 V 539.219 h 0.91736 v 0.95581 q 0.28565,-0.56031 0.74707,-0.82947 0.46143,-0.27466 1.11512,-0.27466 0.0934,0 0.20874,0.0165 0.11535,0.011 0.25268,0.0385 z"
         style="font-size:11.25px;line-height:1.2;text-align:center;text-anchor:middle"
         id="path1234" />
      <path
         d="m 292.84183,545.94263 q -0.38452,1.09863 -0.75257,1.43371 -0.36254,0.33509 -0.97778,0.33509 h -0.7251 v -0.84595 h 0.53284 q 0.37354,0 0.58228,-0.19775 0.20874,-0.19776 0.46142,-0.93384 l 0.1648,-0.46143 -2.24121,-6.05346 h 0.9613 l 1.73035,4.81201 1.73034,-4.81201 h 0.9668 z"
         style="font-size:11.25px;line-height:1.2;text-align:center;text-anchor:middle"
         id="path1236" />
      <path
         d="m 304.10831,539.41126 v 1.604 q -0.35706,-0.27466 -0.7251,-0.40649 -0.36255,-0.13184 -0.75256,-0.13184 -0.74158,0 -1.15357,0.4834 -0.41199,0.4779 -0.41199,1.34033 0,0.86243 0.41199,1.34583 0.41199,0.4779 1.15357,0.4779 0.41748,0 0.79101,-0.13733 0.37354,-0.13733 0.68665,-0.40649 v 1.60949 q -0.41199,0.17029 -0.84046,0.25269 -0.42846,0.0879 -0.85693,0.0879 -1.49963,0 -2.34558,-0.85144 -0.84595,-0.85693 -0.84595,-2.37854 0,-1.52161 0.84595,-2.37305 0.84595,-0.85693 2.34558,-0.85693 0.43396,0 0.85693,0.0879 0.42298,0.0824 0.84046,0.25269 z"
         style="font-size:11.25px;line-height:1.2;text-align:center;text-anchor:middle;fill:#39737c;fill-opacity:1"
         id="path1238" />
      <path
         d="m 308.26663,540.47693 q -0.58777,0 -0.89538,0.47241 -0.30762,0.46692 -0.30762,1.35132 0,0.8844 0.30762,1.35681 0.30761,0.46692 0.89538,0.46692 0.58228,0 0.8844,-0.46692 0.30762,-0.47241 0.30762,-1.35681 0,-0.8844 -0.30762,-1.35132 -0.30212,-0.47241 -0.8844,-0.47241 z m 0,-1.40625 q 1.43372,0 2.23572,0.85693 0.802,0.85694 0.802,2.37305 0,1.51611 -0.802,2.37305 -0.802,0.85693 -2.23572,0.85693 -1.42822,0 -2.24121,-0.85693 -0.80749,-0.85694 -0.80749,-2.37305 0,-1.51611 0.80749,-2.37305 0.81299,-0.85693 2.24121,-0.85693 z"
         style="font-size:11.25px;line-height:1.2;text-align:center;text-anchor:middle;fill:#39737c;fill-opacity:1"
         id="path1240" />
      <path
         d="m 318.11588,542.27869 v 0.5603 h -4.13636 q 0.0604,0.69214 0.44495,1.03821 0.39001,0.34607 1.08215,0.34607 0.56031,0 1.14258,-0.18128 0.58777,-0.18676 1.203,-0.5603 v 1.51611 q -0.62622,0.26368 -1.25793,0.39551 -0.62622,0.13733 -1.25244,0.13733 -1.50513,0 -2.34009,-0.84595 -0.82947,-0.85144 -0.82947,-2.38403 0,-1.50513 0.81848,-2.36755 0.81848,-0.86243 2.2522,-0.86243 1.30737,0 2.0874,0.87341 0.78553,0.87342 0.78553,2.3346 z m -1.81824,-0.65369 q 0,-0.5603 -0.29663,-0.90088 -0.29114,-0.34607 -0.76905,-0.34607 -0.51086,0 -0.83496,0.3241 -0.3186,0.3186 -0.401,0.92285 z"
         style="font-size:11.25px;line-height:1.2;text-align:center;text-anchor:middle;fill:#39737c;fill-opacity:1"
         id="path1242" />
      <path
         d="m 318.75858,539.219 h 1.76879 l 1.37879,4.2517 1.37329,-4.2517 h 1.77429 l -2.17529,6.15234 h -1.94458 z"
         style="font-size:11.25px;line-height:1.2;text-align:center;text-anchor:middle;fill:#39737c;fill-opacity:1"
         id="path1244" />
      <path
         d="m 328.53641,542.60278 q -0.55481,0 -0.83496,0.20874 -0.28015,0.20874 -0.28015,0.61524 0,0.37353 0.22521,0.58777 0.22522,0.20874 0.62623,0.20874 0.49987,0 0.84045,-0.39551 0.34058,-0.401 0.34058,-0.99976 v -0.22522 z m 2.70263,-0.74157 v 3.51013 h -1.78527 v -0.91187 q -0.35706,0.56031 -0.80201,0.81849 -0.44494,0.25268 -1.08215,0.25268 -0.86243,0 -1.40076,-0.55481 -0.53283,-0.5603 -0.53283,-1.45019 0,-1.08216 0.67016,-1.58753 0.67017,-0.50537 2.10388,-0.50537 h 1.04371 v -0.15381 q 0,-0.46692 -0.33509,-0.68115 -0.32959,-0.21973 -1.02722,-0.21973 -0.57129,0 -1.06018,0.12635 -0.48889,0.12634 -0.91186,0.37902 v -1.49963 q 0.57128,-0.15381 1.14257,-0.23071 0.57679,-0.0824 1.14807,-0.0824 1.49964,0 2.16431,0.65918 0.66467,0.65369 0.66467,2.13135 z"
         style="font-size:11.25px;line-height:1.2;text-align:center;text-anchor:middle;fill:#39737c;fill-opacity:1"
         id="path1246" />
      <path
         d="m 332.8815,536.82398 h 1.7688 v 8.54736 h -1.7688 z"
         style="font-size:11.25px;line-height:1.2;text-align:center;text-anchor:middle;fill:#39737c;fill-opacity:1"
         id="path1248" />
      <path
         d="m 336.34769,539.219 h 1.7688 v 6.15234 h -1.7688 z m 0,-2.39502 h 1.7688 v 1.604 h -1.7688 z"
         style="font-size:11.25px;line-height:1.2;text-align:center;text-anchor:middle;fill:#39737c;fill-opacity:1"
         id="path1250" />
      <path
         d="m 341.74747,537.47217 v 1.74683 h 1.82373 v 1.40625 h -1.82373 v 2.60925 q 0,0.42846 0.14831,0.58227 0.15381,0.14832 0.60974,0.14832 h 0.91187 v 1.40625 h -1.51611 q -1.0492,0 -1.48865,-0.4834 -0.43945,-0.48889 -0.43945,-1.65344 v -2.60925 h -0.87891 V 539.219 h 0.87891 v -1.74683 z"
         style="font-size:11.25px;line-height:1.2;text-align:center;text-anchor:middle;fill:#39737c;fill-opacity:1"
         id="path1252" />
      <path
         d="m 343.92276,539.219 h 1.77429 l 1.48865,4.1748 1.26343,-4.1748 h 1.7688 l -2.32911,6.73461 q -0.35156,1.02723 -0.81848,1.43372 -0.46692,0.41199 -1.23047,0.41199 h -1.02722 v -1.2909 h 0.55481 q 0.45044,0 0.65369,-0.1593 0.20874,-0.1593 0.3241,-0.57129 l 0.0494,-0.17028 z"
         style="font-style:normal;font-variant:normal;font-weight:bold;font-stretch:semi-condensed;font-size:11.25px;line-height:1.2;font-family:'DejaVu Sans';-inkscape-font-specification:'DejaVu Sans Bold Semi-Condensed';fill:#39737c;fill-opacity:1"
         id="path1254" />
    </g>
  </g>
</svg>
