<?xml version="1.0" encoding="UTF-8" standalone="no"?>
<svg
   xmlns:dc="http://purl.org/dc/elements/1.1/"
   xmlns:cc="http://creativecommons.org/ns#"
   xmlns:rdf="http://www.w3.org/1999/02/22-rdf-syntax-ns#"
   xmlns:svg="http://www.w3.org/2000/svg"
   xmlns="http://www.w3.org/2000/svg"
   xmlns:sodipodi="http://sodipodi.sourceforge.net/DTD/sodipodi-0.dtd"
   xmlns:inkscape="http://www.inkscape.org/namespaces/inkscape"
   width="52.243149mm"
   height="32.881786mm"
   viewBox="0 0 185.11352 116.51027"
   id="svg2"
   version="1.1"
   inkscape:version="1.0.2 (e86c870879, 2021-01-15)"
   sodipodi:docname="site-logo.svg">
  <defs
     id="defs4" />
  <sodipodi:namedview
     id="base"
     pagecolor="#ffffff"
     bordercolor="#666666"
     borderopacity="1.0"
     inkscape:pageopacity="0.0"
     inkscape:pageshadow="2"
     inkscape:zoom="5.6"
     inkscape:cx="95.893942"
     inkscape:cy="67.191279"
     inkscape:document-units="px"
     inkscape:current-layer="layer2"
     showgrid="false"
     fit-margin-top="0"
     fit-margin-left="0"
     fit-margin-right="0"
     fit-margin-bottom="0"
     inkscape:window-width="1920"
     inkscape:window-height="1016"
     inkscape:window-x="0"
     inkscape:window-y="27"
     inkscape:window-maximized="1"
     inkscape:snap-text-baseline="true"
     inkscape:document-rotation="0" />
  <metadata
     id="metadata7">
    <rdf:RDF>
      <cc:Work
         rdf:about="">
        <dc:format>image/svg+xml</dc:format>
        <dc:type
           rdf:resource="http://purl.org/dc/dcmitype/StillImage" />
        <dc:title />
      </cc:Work>
    </rdf:RDF>
  </metadata>
  <g
     inkscape:label="Layer 1"
     inkscape:groupmode="layer"
     id="layer1"
     transform="translate(-170.37264,-497.19897)">
    <g
       aria-label="Ecoevolity
Estimating evolutionary coevality"
       id="text4136"
       style="font-style:normal;font-weight:normal;line-height:0%;font-family:sans-serif;letter-spacing:0px;word-spacing:0px;fill:#000000;fill-opacity:1;stroke:none;stroke-width:1px;stroke-linecap:butt;stroke-linejoin:miter;stroke-opacity:1">
      <path
         d="m 175.94211,498.27563 h 15.96191 l -0.87158,4.97315 h -10.04883 l -0.8374,4.75098 h 9.46777 l -0.90576,4.97314 h -9.43359 l -1.02539,5.84473 h 10.37353 l -0.8374,4.97314 h -16.3208 z"
         style="font-style:oblique;font-variant:normal;font-weight:bold;font-stretch:semi-condensed;font-size:35px;line-height:1.2;font-family:'DejaVu Sans';-inkscape-font-specification:'DejaVu Sans Bold Oblique Semi-Condensed';text-align:center;text-anchor:middle;fill:#32a251;fill-opacity:1"
         id="path940" />
      <path
         d="m 210.6174,505.24829 -0.87158,4.99024 q -1.11084,-0.82032 -2.1875,-1.24756 -1.07666,-0.42725 -2.10205,-0.42725 -2.7002,0 -4.40918,2.0166 -1.70899,1.99951 -1.70899,5.12696 0,1.99951 1.05957,3.11035 1.07666,1.09375 3.00782,1.09375 1.28174,0 2.52929,-0.42725 1.24756,-0.42725 2.37549,-1.26465 l -0.85449,5.00733 q -1.36719,0.52978 -2.75146,0.78613 -1.38428,0.27344 -2.78565,0.27344 -4.05029,0 -6.25488,-2.0166 -2.1875,-2.0337 -2.1875,-5.75928 0,-2.34131 0.80322,-4.5459 0.82031,-2.20459 2.32422,-3.96484 1.6748,-1.93116 3.84521,-2.8711 2.17041,-0.93994 5.00733,-0.93994 1.29883,0 2.58056,0.27344 1.29883,0.25635 2.58057,0.78613 z"
         style="font-style:oblique;font-variant:normal;font-weight:bold;font-stretch:semi-condensed;font-size:35px;line-height:1.2;font-family:'DejaVu Sans';-inkscape-font-specification:'DejaVu Sans Bold Oblique Semi-Condensed';text-align:center;text-anchor:middle;fill:#39737c;fill-opacity:1"
         id="path942" />
      <path
         d="m 222.78537,508.56372 q -2.13623,0 -3.52051,2.15332 -1.38428,2.15332 -1.38428,5.48584 0,1.81152 0.73487,2.76856 0.75195,0.93994 2.1875,0.93994 2.13623,0 3.52051,-2.15332 1.38427,-2.17041 1.38427,-5.52002 0,-1.79444 -0.75195,-2.73438 -0.73486,-0.93994 -2.17041,-0.93994 z m 0.44434,-4.375 q 3.84521,0 6.0498,2.17041 2.20459,2.17041 2.20459,5.91309 0,2.17041 -0.70068,4.22119 -0.6836,2.03369 -2.0166,3.72558 -1.55518,2.01661 -3.7085,3.042 -2.13623,1.02539 -4.76807,1.02539 -3.79394,0 -5.98144,-2.17041 -2.1875,-2.17041 -2.1875,-5.91309 0,-2.15332 0.70068,-4.2041 0.70068,-2.06787 2.03369,-3.77686 1.53809,-1.98242 3.65723,-3.00781 2.13623,-1.02539 4.7168,-1.02539 z"
         style="font-style:oblique;font-variant:normal;font-weight:bold;font-stretch:semi-condensed;font-size:35px;line-height:1.2;font-family:'DejaVu Sans';-inkscape-font-specification:'DejaVu Sans Bold Oblique Semi-Condensed';text-align:center;text-anchor:middle;fill:#39737c;fill-opacity:1"
         id="path944" />
      <path
         d="m 252.41916,514.93823 -0.18799,0.97412 h -12.88574 q 0,0.10254 -0.0171,0.30762 -0.0171,0.18799 -0.0171,0.29053 0,1.86279 1.0083,2.78564 1.0083,0.92285 3.0249,0.92285 1.74317,0 3.67432,-0.58105 1.93115,-0.58106 4.05029,-1.72607 l -0.85449,4.75097 q -1.99951,0.82031 -3.99902,1.21338 -1.98243,0.41016 -4.0503,0.41016 -4.0332,0 -6.2207,-2.06787 -2.1875,-2.06788 -2.1875,-5.84473 0,-2.1875 0.68359,-4.23828 0.70069,-2.06787 2.05078,-3.77686 1.58936,-2.05078 3.79395,-3.11035 2.20459,-1.05957 4.8877,-1.05957 3.50341,0 5.55419,2.06787 2.05079,2.06787 2.05079,5.57129 0,0.68359 -0.0855,1.45264 -0.0855,0.75195 -0.27344,1.65771 z m -5.19531,-2.80273 q 0.0513,-0.22217 0.0684,-0.44434 0.0171,-0.23926 0.0171,-0.46142 0,-1.36719 -0.73487,-2.17041 -0.73486,-0.80323 -1.99951,-0.80323 -1.60644,0 -2.75146,0.99121 -1.12793,0.97413 -1.72608,2.88819 z"
         style="font-style:oblique;font-variant:normal;font-weight:bold;font-stretch:semi-condensed;font-size:35px;line-height:1.2;font-family:'DejaVu Sans';-inkscape-font-specification:'DejaVu Sans Bold Oblique Semi-Condensed';text-align:center;text-anchor:middle;fill:#b85a0d;fill-opacity:1"
         id="path946" />
      <path
         d="m 255.95676,504.65015 h 5.07568 l 2.23877,13.36425 6.47705,-13.36425 h 5.58838 l -10.11719,19.14062 h -5.82763 z"
         style="font-style:oblique;font-variant:normal;font-weight:bold;font-stretch:semi-condensed;font-size:35px;line-height:1.2;font-family:'DejaVu Sans';-inkscape-font-specification:'DejaVu Sans Bold Oblique Semi-Condensed';text-align:center;text-anchor:middle;fill:#b85a0d;fill-opacity:1"
         id="path948" />
      <path
         d="m 286.30832,508.56372 q -2.13623,0 -3.52051,2.15332 -1.38428,2.15332 -1.38428,5.48584 0,1.81152 0.73487,2.76856 0.75195,0.93994 2.1875,0.93994 2.13623,0 3.52051,-2.15332 1.38427,-2.17041 1.38427,-5.52002 0,-1.79444 -0.75195,-2.73438 -0.73486,-0.93994 -2.17041,-0.93994 z m 0.44434,-4.375 q 3.84521,0 6.0498,2.17041 2.20459,2.17041 2.20459,5.91309 0,2.17041 -0.70068,4.22119 -0.6836,2.03369 -2.01661,3.72558 -1.55517,2.01661 -3.70849,3.042 -2.13623,1.02539 -4.76807,1.02539 -3.79394,0 -5.98144,-2.17041 -2.1875,-2.17041 -2.1875,-5.91309 0,-2.15332 0.70068,-4.2041 0.70068,-2.06787 2.03369,-3.77686 1.53809,-1.98242 3.65723,-3.00781 2.13623,-1.02539 4.7168,-1.02539 z"
         style="font-style:oblique;font-variant:normal;font-weight:bold;font-stretch:semi-condensed;font-size:35px;line-height:1.2;font-family:'DejaVu Sans';-inkscape-font-specification:'DejaVu Sans Bold Oblique Semi-Condensed';text-align:center;text-anchor:middle;fill:#b85a0d;fill-opacity:1"
         id="path950" />
      <path
         d="m 301.74045,497.19897 h 5.53711 l -4.64844,26.5918 h -5.52002 z"
         style="font-style:oblique;font-variant:normal;font-weight:bold;font-stretch:semi-condensed;font-size:35px;line-height:1.2;font-family:'DejaVu Sans';-inkscape-font-specification:'DejaVu Sans Bold Oblique Semi-Condensed';text-align:center;text-anchor:middle;fill:#39737c;fill-opacity:1"
         id="path952" />
      <path
         d="m 311.2424,504.65015 h 5.53711 l -3.3667,19.14062 h -5.52002 z m 1.28174,-7.45118 h 5.53711 l -0.87158,4.99024 h -5.5542 z"
         style="font-style:oblique;font-variant:normal;font-weight:bold;font-stretch:semi-condensed;font-size:35px;line-height:1.2;font-family:'DejaVu Sans';-inkscape-font-specification:'DejaVu Sans Bold Oblique Semi-Condensed';text-align:center;text-anchor:middle;fill:#39737c;fill-opacity:1"
         id="path954" />
      <path
         d="m 329.03293,499.21558 -0.93994,5.43457 h 5.63965 l -0.78614,4.375 h -5.63965 l -1.40136,8.10058 q -0.0684,0.27344 -0.10254,0.46143 -0.0171,0.18799 -0.0171,0.35888 0,0.78614 0.46142,1.12793 0.47852,0.3418 1.58936,0.3418 h 2.854 l -0.78613,4.375 h -4.63135 q -2.49511,0 -3.81103,-1.16211 -1.29883,-1.16211 -1.29883,-3.34961 0,-0.47851 0.0342,-1.02539 0.0513,-0.54687 0.15381,-1.11084 l 1.41845,-8.11767 h -2.71728 l 0.75195,-4.375 h 2.75147 l 0.93994,-5.43457 z"
         style="font-style:oblique;font-variant:normal;font-weight:bold;font-stretch:semi-condensed;font-size:35px;line-height:1.2;font-family:'DejaVu Sans';-inkscape-font-specification:'DejaVu Sans Bold Oblique Semi-Condensed';text-align:center;text-anchor:middle;fill:#39737c;fill-opacity:1"
         id="path956" />
      <path
         d="m 334.84348,504.65015 h 5.19531 l 2.3584,13.26172 6.11816,-13.26172 h 5.87891 l -10.90332,20.95214 q -1.82862,3.5376 -3.38379,4.63135 -1.55518,1.11084 -4.01612,1.11084 h -3.33252 l 0.56397,-4.01611 h 1.74316 q 1.3501,0 2.10205,-0.5127 0.75196,-0.4956 1.33301,-1.76025 l 0.49561,-1.02539 z"
         style="font-style:oblique;font-variant:normal;font-weight:bold;font-stretch:semi-condensed;font-size:35px;line-height:1.2;font-family:'DejaVu Sans';-inkscape-font-specification:'DejaVu Sans Bold Oblique Semi-Condensed';text-align:center;text-anchor:middle;fill:#39737c;fill-opacity:1"
         id="path958" />
      <path
         d="m 173.93314,537.17005 h 5.1361 v 1.59851 h -3.22998 v 1.5271 h 3.03772 v 1.59851 h -3.03772 v 1.87866 h 3.33985 v 1.59851 h -5.24597 z"
         style="font-style:normal;font-variant:normal;font-weight:bold;font-stretch:semi-condensed;font-size:11.25px;line-height:1.2;font-family:'DejaVu Sans';-inkscape-font-specification:'DejaVu Sans Bold Semi-Condensed';text-align:center;text-anchor:middle;fill:#32a251;fill-opacity:1"
         id="path960" />
      <path
         d="m 184.40311,539.40027 v 0.95581 q -0.38452,-0.21973 -0.80201,-0.32959 -0.41198,-0.10986 -0.85693,-0.10986 -0.67566,0 -1.01623,0.23071 -0.34058,0.23071 -0.34058,0.69214 0,0.35156 0.2417,0.55481 0.24719,0.19775 0.97778,0.37903 l 0.30762,0.0769 q 0.97229,0.23071 1.37878,0.65369 0.4065,0.41748 0.4065,1.17004 0,0.85693 -0.60974,1.35681 -0.60974,0.49988 -1.67542,0.49988 -0.44494,0 -0.92834,-0.0989 -0.4834,-0.0934 -1.01624,-0.28564 v -1.0437 q 0.50537,0.29114 0.99426,0.43945 0.4889,0.14282 0.9668,0.14282 0.6427,0 0.98877,-0.2417 0.34607,-0.24719 0.34607,-0.69213 0,-0.41199 -0.25269,-0.63172 -0.24719,-0.21972 -1.09314,-0.42297 l -0.31311,-0.0824 q -0.84594,-0.19775 -1.22497,-0.60425 -0.37354,-0.41198 -0.37354,-1.1261 0,-0.86792 0.55481,-1.34033 0.55481,-0.47241 1.57105,-0.47241 0.50537,0 0.95032,0.0824 0.44494,0.0824 0.81848,0.24719 z"
         style="font-size:11.25px;line-height:1.2;text-align:center;text-anchor:middle"
         id="path962" />
      <path
         d="m 187.05081,537.47217 v 1.74683 h 1.87317 v 0.78552 h -1.87317 v 3.33984 q 0,0.75256 0.18128,0.9668 0.18676,0.21423 0.75256,0.21423 h 0.93933 v 0.84595 h -0.93933 q -1.04919,0 -1.4502,-0.43396 -0.401,-0.43945 -0.401,-1.59302 v -3.33984 h -0.66467 V 539.219 h 0.66467 v -1.74683 z"
         style="font-size:11.25px;line-height:1.2;text-align:center;text-anchor:middle"
         id="path964" />
      <path
         d="m 190.116,539.219 h 0.90637 v 6.15234 H 190.116 Z m 0,-2.39502 h 0.90637 v 1.2799 H 190.116 Z"
         style="font-size:11.25px;line-height:1.2;text-align:center;text-anchor:middle"
         id="path966" />
      <path
         d="m 197.23514,540.40003 q 0.34607,-0.68116 0.81848,-1.00525 0.47241,-0.3241 1.11511,-0.3241 0.86792,0 1.33484,0.67566 0.47241,0.67017 0.47241,1.91162 v 3.71338 h -0.91736 v -3.68042 q 0,-0.8844 -0.28015,-1.31287 -0.28015,-0.42846 -0.86242,-0.42846 -0.70313,0 -1.11512,0.52185 -0.41198,0.52185 -0.41198,1.42273 v 3.47717 h -0.91187 v -3.68042 q 0,-0.88989 -0.28564,-1.31287 -0.28015,-0.42846 -0.86792,-0.42846 -0.69763,0 -1.10962,0.52734 -0.4065,0.52185 -0.4065,1.41724 v 3.47717 h -0.91735 V 539.219 h 0.91735 v 0.95581 q 0.31311,-0.5658 0.74707,-0.83497 0.43396,-0.26916 1.03272,-0.26916 0.60425,0 1.02722,0.34058 0.42297,0.34057 0.62073,0.98877 z"
         style="font-size:11.25px;line-height:1.2;text-align:center;text-anchor:middle"
         id="path968" />
      <path
         d="m 205.3046,542.27869 q -1.10413,0 -1.5326,0.28015 -0.42297,0.28015 -0.42297,0.95581 0,0.53833 0.3186,0.85693 0.31861,0.31311 0.86792,0.31311 0.75806,0 1.21399,-0.59326 0.45593,-0.59875 0.45593,-1.58752 v -0.22522 z m 1.81274,-0.41748 v 3.51013 h -0.91187 v -0.93384 q -0.30761,0.5603 -0.77453,0.82947 -0.46143,0.26367 -1.13709,0.26367 -0.85144,0 -1.35131,-0.52734 -0.49988,-0.53284 -0.49988,-1.42273 0,-1.03821 0.62073,-1.56555 0.62622,-0.52735 1.86767,-0.52735 h 1.27441 v -0.0989 q 0,-0.69764 -0.41198,-1.07667 -0.41199,-0.38452 -1.15906,-0.38452 -0.47241,0 -0.92285,0.12635 -0.45044,0.12634 -0.86792,0.37902 v -0.93383 q 0.49988,-0.21424 0.9668,-0.31861 0.47241,-0.10986 0.91735,-0.10986 1.20301,0 1.79627,0.69214 0.59326,0.69214 0.59326,2.09839 z"
         style="font-size:11.25px;line-height:1.2;text-align:center;text-anchor:middle"
         id="path970" />
      <path
         d="m 209.89139,537.47217 v 1.74683 h 1.87317 v 0.78552 h -1.87317 v 3.33984 q 0,0.75256 0.18127,0.9668 0.18677,0.21423 0.75257,0.21423 h 0.93933 v 0.84595 h -0.93933 q -1.0492,0 -1.4502,-0.43396 -0.401,-0.43945 -0.401,-1.59302 v -3.33984 h -0.66467 V 539.219 h 0.66467 v -1.74683 z"
         style="font-size:11.25px;line-height:1.2;text-align:center;text-anchor:middle"
         id="path972" />
      <path
         d="m 212.95657,539.219 h 0.90638 v 6.15234 h -0.90638 z m 0,-2.39502 h 0.90638 v 1.2799 h -0.90638 z"
         style="font-size:11.25px;line-height:1.2;text-align:center;text-anchor:middle"
         id="path974" />
      <path
         d="m 220.37234,541.65796 v 3.71338 h -0.91186 v -3.68042 q 0,-0.87341 -0.30762,-1.30737 -0.30761,-0.43396 -0.91736,-0.43396 -0.73608,0 -1.16455,0.52185 -0.42297,0.52185 -0.42297,1.42273 v 3.47717 h -0.91736 V 539.219 h 0.91736 v 0.95581 q 0.3241,-0.55481 0.76355,-0.82947 0.44495,-0.27466 1.02722,-0.27466 0.95032,0 1.43921,0.65918 0.49438,0.65369 0.49438,1.9281 z"
         style="font-size:11.25px;line-height:1.2;text-align:center;text-anchor:middle"
         id="path976" />
      <path
         d="m 225.82706,542.22376 q 0,-1.09864 -0.41199,-1.70288 -0.40649,-0.60425 -1.14258,-0.60425 -0.73059,0 -1.13708,0.60425 -0.4065,0.60424 -0.4065,1.70288 0,1.09314 0.4065,1.69738 0.40649,0.60425 1.13708,0.60425 0.73609,0 1.14258,-0.60425 0.41199,-0.60424 0.41199,-1.69738 z m 0.91186,2.38403 q 0,1.57104 -0.63171,2.33459 -0.62622,0.76905 -1.92261,0.76905 -0.4779,0 -0.90637,-0.0824 -0.42297,-0.0769 -0.82398,-0.2417 v -0.98328 q 0.40101,0.2417 0.79102,0.35706 0.39001,0.11536 0.79651,0.11536 0.89538,0 1.34033,-0.52185 0.44495,-0.51636 0.44495,-1.56556 v -0.49987 q -0.28015,0.54382 -0.71961,0.81298 -0.43945,0.26917 -1.05469,0.26917 -1.02172,0 -1.64245,-0.86243 -0.62073,-0.86242 -0.62073,-2.28515 0,-1.42823 0.62073,-2.29065 0.62073,-0.86243 1.64245,-0.86243 0.61524,0 1.05469,0.26916 0.43946,0.26917 0.71961,0.81299 V 539.219 h 0.91186 z"
         style="font-size:11.25px;line-height:1.2;text-align:center;text-anchor:middle"
         id="path978" />
      <path
         d="m 237.24734,542.27869 v 0.5603 h -4.13635 q 0.0604,0.69214 0.44495,1.03821 0.39001,0.34607 1.08215,0.34607 0.5603,0 1.14258,-0.18128 0.58777,-0.18676 1.203,-0.5603 v 1.51611 q -0.62622,0.26368 -1.25793,0.39551 -0.62622,0.13733 -1.25244,0.13733 -1.50513,0 -2.34009,-0.84595 -0.82947,-0.85144 -0.82947,-2.38403 0,-1.50513 0.81848,-2.36755 0.81848,-0.86243 2.2522,-0.86243 1.30737,0 2.0874,0.87341 0.78552,0.87342 0.78552,2.3346 z m -1.81823,-0.65369 q 0,-0.5603 -0.29663,-0.90088 -0.29114,-0.34607 -0.76905,-0.34607 -0.51086,0 -0.83496,0.3241 -0.3186,0.3186 -0.401,0.92285 z"
         style="font-style:normal;font-variant:normal;font-weight:bold;font-stretch:semi-condensed;font-size:11.25px;line-height:1.2;font-family:'DejaVu Sans';-inkscape-font-specification:'DejaVu Sans Bold Semi-Condensed';text-align:center;text-anchor:middle;fill:#b85a0d;fill-opacity:1"
         id="path980" />
      <path
         d="m 237.89005,539.219 h 1.76879 l 1.37879,4.2517 1.37329,-4.2517 h 1.77429 l -2.17529,6.15234 h -1.94458 z"
         style="font-style:normal;font-variant:normal;font-weight:bold;font-stretch:semi-condensed;font-size:11.25px;line-height:1.2;font-family:'DejaVu Sans';-inkscape-font-specification:'DejaVu Sans Bold Semi-Condensed';text-align:center;text-anchor:middle;fill:#b85a0d;fill-opacity:1"
         id="path982" />
      <path
         d="m 247.81619,540.47693 q -0.58777,0 -0.89538,0.47241 -0.30762,0.46692 -0.30762,1.35132 0,0.8844 0.30762,1.35681 0.30761,0.46692 0.89538,0.46692 0.58228,0 0.8844,-0.46692 0.30762,-0.47241 0.30762,-1.35681 0,-0.8844 -0.30762,-1.35132 -0.30212,-0.47241 -0.8844,-0.47241 z m 0,-1.40625 q 1.43372,0 2.23572,0.85693 0.802,0.85694 0.802,2.37305 0,1.51611 -0.802,2.37305 -0.802,0.85693 -2.23572,0.85693 -1.42822,0 -2.24121,-0.85693 -0.80749,-0.85694 -0.80749,-2.37305 0,-1.51611 0.80749,-2.37305 0.81299,-0.85693 2.24121,-0.85693 z"
         style="font-style:normal;font-variant:normal;font-weight:bold;font-stretch:semi-condensed;font-size:11.25px;line-height:1.2;font-family:'DejaVu Sans';-inkscape-font-specification:'DejaVu Sans Bold Semi-Condensed';text-align:center;text-anchor:middle;fill:#b85a0d;fill-opacity:1"
         id="path984" />
      <path
         d="m 252.24368,536.82398 h 0.90637 v 8.54736 h -0.90637 z"
         style="font-size:11.25px;line-height:1.2;text-align:center;text-anchor:middle"
         id="path987" />
      <path
         d="M 254.9628,542.94336 V 539.219 h 0.90637 v 3.68591 q 0,0.87341 0.30762,1.31286 0.30762,0.43396 0.91736,0.43396 0.74157,0 1.16455,-0.52185 0.42846,-0.52185 0.42846,-1.42273 V 539.219 h 0.91187 v 6.15234 h -0.91187 v -0.94483 q -0.32959,0.56031 -0.76904,0.83497 -0.43396,0.26916 -1.01623,0.26916 -0.95032,0 -1.44471,-0.65918 -0.49438,-0.65918 -0.49438,-1.9281 z m 2.28516,-3.87268 z"
         style="font-size:11.25px;line-height:1.2;text-align:center;text-anchor:middle"
         id="path989" />
      <path
         d="m 262.37308,537.47217 v 1.74683 h 1.87317 v 0.78552 h -1.87317 v 3.33984 q 0,0.75256 0.18127,0.9668 0.18677,0.21423 0.75257,0.21423 h 0.93933 v 0.84595 h -0.93933 q -1.0492,0 -1.4502,-0.43396 -0.401,-0.43945 -0.401,-1.59302 v -3.33984 h -0.66467 V 539.219 h 0.66467 v -1.74683 z"
         style="font-size:11.25px;line-height:1.2;text-align:center;text-anchor:middle"
         id="path991" />
      <path
         d="m 265.43826,539.219 h 0.90638 v 6.15234 h -0.90638 z m 0,-2.39502 h 0.90638 v 1.2799 h -0.90638 z"
         style="font-size:11.25px;line-height:1.2;text-align:center;text-anchor:middle"
         id="path993" />
      <path
         d="m 270.3931,539.92761 q -0.73059,0 -1.15906,0.63721 -0.42297,0.63171 -0.42297,1.73584 0,1.10413 0.42297,1.74133 0.42297,0.63172 1.15906,0.63172 0.73059,0 1.15356,-0.63721 0.42298,-0.63721 0.42298,-1.73584 0,-1.09314 -0.42298,-1.73035 -0.42297,-0.6427 -1.15356,-0.6427 z m 0,-0.85693 q 1.18652,0 1.86218,0.85693 0.68115,0.85694 0.68115,2.37305 0,1.51062 -0.68115,2.37305 -0.67566,0.85693 -1.86218,0.85693 -1.19202,0 -1.86768,-0.85693 -0.67016,-0.86243 -0.67016,-2.37305 0,-1.51611 0.67016,-2.37305 0.67566,-0.85693 1.86768,-0.85693 z"
         style="font-size:11.25px;line-height:1.2;text-align:center;text-anchor:middle"
         id="path995" />
      <path
         d="m 279.04483,541.65796 v 3.71338 h -0.91186 v -3.68042 q 0,-0.87341 -0.30762,-1.30737 -0.30762,-0.43396 -0.91736,-0.43396 -0.73608,0 -1.16455,0.52185 -0.42297,0.52185 -0.42297,1.42273 v 3.47717 h -0.91736 V 539.219 h 0.91736 v 0.95581 q 0.32409,-0.55481 0.76354,-0.82947 0.44495,-0.27466 1.02723,-0.27466 0.95031,0 1.43921,0.65918 0.49438,0.65369 0.49438,1.9281 z"
         style="font-size:11.25px;line-height:1.2;text-align:center;text-anchor:middle"
         id="path997" />
      <path
         d="m 283.37344,542.27869 q -1.10412,0 -1.53259,0.28015 -0.42297,0.28015 -0.42297,0.95581 0,0.53833 0.3186,0.85693 0.3186,0.31311 0.86792,0.31311 0.75806,0 1.21399,-0.59326 0.45593,-0.59875 0.45593,-1.58752 v -0.22522 z m 1.81275,-0.41748 v 3.51013 h -0.91187 v -0.93384 q -0.30761,0.5603 -0.77453,0.82947 -0.46143,0.26367 -1.13709,0.26367 -0.85144,0 -1.35132,-0.52734 -0.49987,-0.53284 -0.49987,-1.42273 0,-1.03821 0.62072,-1.56555 0.62622,-0.52735 1.86768,-0.52735 h 1.27441 v -0.0989 q 0,-0.69764 -0.41198,-1.07667 -0.41199,-0.38452 -1.15906,-0.38452 -0.47241,0 -0.92285,0.12635 -0.45044,0.12634 -0.86792,0.37902 v -0.93383 q 0.49987,-0.21424 0.96679,-0.31861 0.47242,-0.10986 0.91736,-0.10986 1.203,0 1.79627,0.69214 0.59326,0.69214 0.59326,2.09839 z"
         style="font-size:11.25px;line-height:1.2;text-align:center;text-anchor:middle"
         id="path999" />
      <path
         d="m 290.26736,540.16382 q -0.1538,-0.0989 -0.33508,-0.14282 -0.18127,-0.0494 -0.39551,-0.0494 -0.77453,0 -1.18652,0.5603 -0.41199,0.55481 -0.41199,1.59851 v 3.24097 H 287.0209 V 539.219 h 0.91736 v 0.95581 q 0.28565,-0.56031 0.74707,-0.82947 0.46143,-0.27466 1.11512,-0.27466 0.0934,0 0.20874,0.0165 0.11535,0.011 0.25268,0.0385 z"
         style="font-size:11.25px;line-height:1.2;text-align:center;text-anchor:middle"
         id="path1001" />
      <path
         d="m 293.51932,545.94263 q -0.38452,1.09863 -0.75257,1.43371 -0.36254,0.33509 -0.97778,0.33509 h -0.7251 v -0.84595 h 0.53284 q 0.37354,0 0.58228,-0.19775 0.20874,-0.19776 0.46142,-0.93384 l 0.1648,-0.46143 -2.24121,-6.05346 h 0.9613 l 1.73035,4.81201 1.73034,-4.81201 h 0.9668 z"
         style="font-size:11.25px;line-height:1.2;text-align:center;text-anchor:middle"
         id="path1003" />
      <path
         d="m 304.7858,539.41126 v 1.604 q -0.35706,-0.27466 -0.7251,-0.40649 -0.36255,-0.13184 -0.75256,-0.13184 -0.74158,0 -1.15357,0.4834 -0.41199,0.4779 -0.41199,1.34033 0,0.86243 0.41199,1.34583 0.41199,0.4779 1.15357,0.4779 0.41748,0 0.79101,-0.13733 0.37354,-0.13733 0.68665,-0.40649 v 1.60949 q -0.41199,0.17029 -0.84046,0.25269 -0.42846,0.0879 -0.85693,0.0879 -1.49963,0 -2.34558,-0.85144 -0.84595,-0.85693 -0.84595,-2.37854 0,-1.52161 0.84595,-2.37305 0.84595,-0.85693 2.34558,-0.85693 0.43396,0 0.85693,0.0879 0.42298,0.0824 0.84046,0.25269 z"
         style="font-size:11.25px;line-height:1.2;text-align:center;text-anchor:middle;fill:#39737c;fill-opacity:1"
         id="path1005" />
      <path
         d="m 308.94412,540.47693 q -0.58777,0 -0.89538,0.47241 -0.30762,0.46692 -0.30762,1.35132 0,0.8844 0.30762,1.35681 0.30761,0.46692 0.89538,0.46692 0.58228,0 0.8844,-0.46692 0.30762,-0.47241 0.30762,-1.35681 0,-0.8844 -0.30762,-1.35132 -0.30212,-0.47241 -0.8844,-0.47241 z m 0,-1.40625 q 1.43372,0 2.23572,0.85693 0.802,0.85694 0.802,2.37305 0,1.51611 -0.802,2.37305 -0.802,0.85693 -2.23572,0.85693 -1.42822,0 -2.24121,-0.85693 -0.80749,-0.85694 -0.80749,-2.37305 0,-1.51611 0.80749,-2.37305 0.81299,-0.85693 2.24121,-0.85693 z"
         style="font-size:11.25px;line-height:1.2;text-align:center;text-anchor:middle;fill:#39737c;fill-opacity:1"
         id="path1007" />
      <path
         d="m 318.79337,542.27869 v 0.5603 h -4.13636 q 0.0604,0.69214 0.44495,1.03821 0.39001,0.34607 1.08215,0.34607 0.56031,0 1.14258,-0.18128 0.58777,-0.18676 1.203,-0.5603 v 1.51611 q -0.62622,0.26368 -1.25793,0.39551 -0.62622,0.13733 -1.25244,0.13733 -1.50513,0 -2.34009,-0.84595 -0.82947,-0.85144 -0.82947,-2.38403 0,-1.50513 0.81848,-2.36755 0.81848,-0.86243 2.2522,-0.86243 1.30737,0 2.0874,0.87341 0.78553,0.87342 0.78553,2.3346 z m -1.81824,-0.65369 q 0,-0.5603 -0.29663,-0.90088 -0.29114,-0.34607 -0.76905,-0.34607 -0.51086,0 -0.83496,0.3241 -0.3186,0.3186 -0.401,0.92285 z"
         style="font-size:11.25px;line-height:1.2;text-align:center;text-anchor:middle;fill:#39737c;fill-opacity:1"
         id="path1009" />
      <path
         d="m 319.43607,539.219 h 1.76879 l 1.37879,4.2517 1.37329,-4.2517 h 1.77429 l -2.17529,6.15234 h -1.94458 z"
         style="font-size:11.25px;line-height:1.2;text-align:center;text-anchor:middle;fill:#39737c;fill-opacity:1"
         id="path1011" />
      <path
         d="m 329.2139,542.60278 q -0.55481,0 -0.83496,0.20874 -0.28015,0.20874 -0.28015,0.61524 0,0.37353 0.22522,0.58777 0.22521,0.20874 0.62622,0.20874 0.49987,0 0.84045,-0.39551 0.34058,-0.401 0.34058,-0.99976 v -0.22522 z m 2.70263,-0.74157 v 3.51013 h -1.78527 v -0.91187 q -0.35706,0.56031 -0.80201,0.81849 -0.44494,0.25268 -1.08215,0.25268 -0.86243,0 -1.40076,-0.55481 -0.53283,-0.5603 -0.53283,-1.45019 0,-1.08216 0.67016,-1.58753 0.67017,-0.50537 2.10388,-0.50537 h 1.04371 v -0.15381 q 0,-0.46692 -0.33509,-0.68115 -0.32959,-0.21973 -1.02722,-0.21973 -0.57129,0 -1.06018,0.12635 -0.48889,0.12634 -0.91186,0.37902 v -1.49963 q 0.57128,-0.15381 1.14257,-0.23071 0.57679,-0.0824 1.14807,-0.0824 1.49964,0 2.16431,0.65918 0.66467,0.65369 0.66467,2.13135 z"
         style="font-size:11.25px;line-height:1.2;text-align:center;text-anchor:middle;fill:#39737c;fill-opacity:1"
         id="path1013" />
      <path
         d="m 333.55899,536.82398 h 1.7688 v 8.54736 h -1.7688 z"
         style="font-size:11.25px;line-height:1.2;text-align:center;text-anchor:middle;fill:#39737c;fill-opacity:1"
         id="path1015" />
      <path
         d="m 337.02518,539.219 h 1.7688 v 6.15234 h -1.7688 z m 0,-2.39502 h 1.7688 v 1.604 h -1.7688 z"
         style="font-size:11.25px;line-height:1.2;text-align:center;text-anchor:middle;fill:#39737c;fill-opacity:1"
         id="path1017" />
      <path
         d="m 342.42496,537.47217 v 1.74683 h 1.82373 v 1.40625 h -1.82373 v 2.60925 q 0,0.42846 0.14831,0.58227 0.15381,0.14832 0.60974,0.14832 h 0.91187 v 1.40625 h -1.51611 q -1.0492,0 -1.48865,-0.4834 -0.43945,-0.48889 -0.43945,-1.65344 v -2.60925 h -0.87891 V 539.219 h 0.87891 v -1.74683 z"
         style="font-size:11.25px;line-height:1.2;text-align:center;text-anchor:middle;fill:#39737c;fill-opacity:1"
         id="path1019" />
      <path
         d="m 344.60025,539.219 h 1.77429 l 1.48865,4.1748 1.26343,-4.1748 h 1.7688 l -2.32911,6.73461 q -0.35156,1.02723 -0.81848,1.43372 -0.46692,0.41199 -1.23047,0.41199 h -1.02722 v -1.2909 h 0.55481 q 0.45044,0 0.65369,-0.1593 0.20874,-0.1593 0.3241,-0.57129 l 0.0494,-0.17028 z"
         style="font-style:normal;font-variant:normal;font-weight:bold;font-stretch:semi-condensed;font-size:11.25px;line-height:1.2;font-family:'DejaVu Sans';-inkscape-font-specification:'DejaVu Sans Bold Semi-Condensed';fill:#39737c;fill-opacity:1"
         id="path1021" />
    </g>
  </g>
  <g
     inkscape:groupmode="layer"
     id="layer2"
     inkscape:label="phycoeval"
     transform="translate(0.36316526)">
    <g
       aria-label="Phylogenetic coevality"
       id="text844"
       style="font-size:16.25px;line-height:1.25;font-family:sans-serif;stroke-width:0.9375">
      <path
         d="M -0.36316526,101.15688 H 4.1992127 q 2.0391845,0 3.1262207,1.00769 1.0870361,0.99976 1.0870361,2.85645 0,1.86462 -1.0870361,2.87231 -1.0870362,0.99976 -3.1262207,0.99976 H 2.3901306 v 4.11011 h -2.75329586 z m 2.75329586,2.21375 v 3.30871 h 1.515503 q 0.8013916,0 1.2377929,-0.42846 0.4364014,-0.4364 0.4364014,-1.22986 0,-0.79346 -0.4364014,-1.22192 -0.4364013,-0.42847 -1.2377929,-0.42847 z"
         style="font-style:normal;font-variant:normal;font-weight:bold;font-stretch:semi-condensed;font-family:'DejaVu Sans';-inkscape-font-specification:'DejaVu Sans Bold Semi-Condensed';fill:#714a7e;fill-opacity:1"
         id="path1041" />
      <path
         d="m 18.27514,107.59182 v 5.41138 h -2.5708 v -0.88074 -3.24524 q 0,-1.16638 -0.04761,-1.60278 -0.04761,-0.4364 -0.158691,-0.6427 -0.150757,-0.27771 -0.412598,-0.42847 -0.253906,-0.15869 -0.579223,-0.15869 -0.801392,0 -1.261597,0.69031 -0.452271,0.68237 -0.452271,1.89636 v 4.37195 h -2.554931 v -12.34619 h 2.554931 v 4.76074 q 0.579224,-0.77759 1.229859,-1.14258 0.650634,-0.37293 1.436157,-0.37293 1.380615,0 2.094727,0.94422 0.722045,0.94421 0.722045,2.74536 z"
         style="font-style:normal;font-variant:normal;font-weight:bold;font-stretch:semi-condensed;font-family:'DejaVu Sans';-inkscape-font-specification:'DejaVu Sans Bold Semi-Condensed';fill:#714a7e;fill-opacity:1"
         id="path1043" />
      <path
         d="m 19.592279,104.11648 h 2.562866 l 2.150269,6.03027 1.824951,-6.03027 h 2.554932 l -3.364258,9.72778 q -0.507813,1.48377 -1.182251,2.07092 -0.674439,0.5951 -1.777344,0.5951 h -1.483765 v -1.86463 h 0.801392 q 0.650635,0 0.944214,-0.2301 0.301514,-0.2301 0.46814,-0.8252 l 0.07141,-0.24597 z"
         style="font-style:normal;font-variant:normal;font-weight:bold;font-stretch:semi-condensed;font-family:'DejaVu Sans';-inkscape-font-specification:'DejaVu Sans Bold Semi-Condensed';fill:#714a7e;fill-opacity:1"
         id="path1045" />
      <path
         d="m 30.176996,100.65701 h 2.554932 v 12.34619 h -2.554932 z"
         style="font-style:normal;font-variant:normal;font-weight:bold;font-stretch:semi-condensed;font-family:'DejaVu Sans';-inkscape-font-specification:'DejaVu Sans Bold Semi-Condensed';fill:#714a7e;fill-opacity:1"
         id="path1047" />
      <path
         d="m 38.984369,105.93349 q -0.848999,0 -1.293335,0.68238 -0.444336,0.67444 -0.444336,1.9519 0,1.27747 0.444336,1.95984 0.444336,0.67444 1.293335,0.67444 0.841064,0 1.277466,-0.67444 0.444336,-0.68237 0.444336,-1.95984 0,-1.27746 -0.444336,-1.9519 -0.436402,-0.68238 -1.277466,-0.68238 z m 0,-2.03125 q 2.070923,0 3.22937,1.2378 1.158447,1.23779 1.158447,3.42773 0,2.18994 -1.158447,3.42774 -1.158447,1.23779 -3.22937,1.23779 -2.062988,0 -3.237305,-1.23779 -1.166382,-1.2378 -1.166382,-3.42774 0,-2.18994 1.166382,-3.42773 1.174317,-1.2378 3.237305,-1.2378 z"
         style="font-style:normal;font-variant:normal;font-weight:bold;font-stretch:semi-condensed;font-family:'DejaVu Sans';-inkscape-font-specification:'DejaVu Sans Bold Semi-Condensed';fill:#714a7e;fill-opacity:1"
         id="path1049" />
      <path
         d="m 50.671991,111.49563 q -0.531616,0.77759 -1.166382,1.14258 -0.634765,0.36499 -1.47583,0.36499 -1.459961,0 -2.420044,-1.27747 -0.952148,-1.2854 -0.952148,-3.26904 0,-1.99158 0.952148,-3.26111 0.960083,-1.27747 2.420044,-1.27747 0.841065,0 1.47583,0.36499 0.634766,0.36499 1.166382,1.15052 v -1.31714 h 2.570801 v 7.99011 q 0,2.14233 -1.221924,3.26904 -1.213989,1.13465 -3.530884,1.13465 -0.745849,0 -1.452026,-0.12696 -0.698242,-0.12695 -1.404419,-0.38879 v -2.21375 q 0.674438,0.42847 1.317139,0.63477 0.6427,0.21423 1.293334,0.21423 1.253663,0 1.840821,-0.61096 0.587158,-0.61096 0.587158,-1.91223 z m -1.690063,-5.5304 q -0.793458,0 -1.237793,0.65064 -0.436402,0.65063 -0.436402,1.84082 0,1.22192 0.428467,1.85669 0.428467,0.62683 1.245728,0.62683 0.801391,0 1.245727,-0.65064 0.444336,-0.65063 0.444336,-1.83288 0,-1.19019 -0.444336,-1.84082 -0.444336,-0.65064 -1.245727,-0.65064 z"
         style="font-style:normal;font-variant:normal;font-weight:bold;font-stretch:semi-condensed;font-family:'DejaVu Sans';-inkscape-font-specification:'DejaVu Sans Bold Semi-Condensed';fill:#714a7e;fill-opacity:1"
         id="path1051" />
      <path
         d="m 63.676752,108.53603 v 0.80933 H 57.70202 q 0.08728,0.99976 0.6427,1.49963 0.563355,0.49988 1.563111,0.49988 0.809326,0 1.65039,-0.26184 0.848999,-0.26977 1.737671,-0.80933 v 2.18995 q -0.904541,0.38086 -1.817016,0.57128 -0.904541,0.19837 -1.809082,0.19837 -2.174073,0 -3.380127,-1.22192 -1.19812,-1.22986 -1.19812,-3.44361 0,-2.17407 1.182251,-3.4198 1.182251,-1.24573 3.253173,-1.24573 1.888428,0 3.015137,1.2616 1.134644,1.2616 1.134644,3.37219 z m -2.626343,-0.94421 q 0,-0.80933 -0.428467,-1.30127 -0.420532,-0.49988 -1.11084,-0.49988 -0.737915,0 -1.206054,0.46814 -0.460205,0.46021 -0.579224,1.33301 z"
         style="font-style:normal;font-variant:normal;font-weight:bold;font-stretch:semi-condensed;font-family:'DejaVu Sans';-inkscape-font-specification:'DejaVu Sans Bold Semi-Condensed';fill:#714a7e;fill-opacity:1"
         id="path1053" />
      <path
         d="m 73.650507,107.59182 v 5.41138 h -2.570801 v -0.88074 -3.26111 q 0,-1.15051 -0.04761,-1.58691 -0.04761,-0.4364 -0.158691,-0.6427 -0.150757,-0.27771 -0.412598,-0.42847 -0.253906,-0.15869 -0.579223,-0.15869 -0.801392,0 -1.261597,0.69031 -0.45227,0.68237 -0.45227,1.89636 v 4.37195 h -2.554932 v -8.88672 h 2.554932 v 1.30127 q 0.579223,-0.77759 1.229858,-1.14258 0.650635,-0.37293 1.436157,-0.37293 1.380615,0 2.094727,0.94422 0.722046,0.94421 0.722046,2.74536 z"
         style="font-style:normal;font-variant:normal;font-weight:bold;font-stretch:semi-condensed;font-family:'DejaVu Sans';-inkscape-font-specification:'DejaVu Sans Bold Semi-Condensed';fill:#714a7e;fill-opacity:1"
         id="path1055" />
      <path
         d="m 84.005121,108.53603 v 0.80933 h -5.974732 q 0.08728,0.99976 0.642701,1.49963 0.563354,0.49988 1.56311,0.49988 0.809326,0 1.650391,-0.26184 0.848999,-0.26977 1.73767,-0.80933 v 2.18995 q -0.904541,0.38086 -1.817016,0.57128 -0.904541,0.19837 -1.809082,0.19837 -2.174072,0 -3.380127,-1.22192 -1.19812,-1.22986 -1.19812,-3.44361 0,-2.17407 1.182251,-3.4198 1.182251,-1.24573 3.253174,-1.24573 1.888427,0 3.015136,1.2616 1.134644,1.2616 1.134644,3.37219 z m -2.626343,-0.94421 q 0,-0.80933 -0.428467,-1.30127 -0.420532,-0.49988 -1.11084,-0.49988 -0.737915,0 -1.206054,0.46814 -0.460205,0.46021 -0.579224,1.33301 z"
         style="font-style:normal;font-variant:normal;font-weight:bold;font-stretch:semi-condensed;font-family:'DejaVu Sans';-inkscape-font-specification:'DejaVu Sans Bold Semi-Condensed';fill:#714a7e;fill-opacity:1"
         id="path1057" />
      <path
         d="m 88.734125,101.59328 v 2.5232 h 2.634277 v 2.03125 h -2.634277 v 3.76892 q 0,0.6189 0.214233,0.84106 0.222168,0.21424 0.880737,0.21424 h 1.317139 v 2.03125 h -2.189941 q -1.515503,0 -2.150269,-0.69825 -0.634765,-0.70617 -0.634765,-2.3883 v -3.76892 h -1.269532 v -2.03125 h 1.269532 v -2.5232 z"
         style="font-style:normal;font-variant:normal;font-weight:bold;font-stretch:semi-condensed;font-family:'DejaVu Sans';-inkscape-font-specification:'DejaVu Sans Bold Semi-Condensed';fill:#714a7e;fill-opacity:1"
         id="path1059" />
      <path
         d="m 92.931512,104.11648 h 2.554932 v 8.88672 h -2.554932 z m 0,-3.45947 h 2.554932 v 2.31689 h -2.554932 z"
         style="font-style:normal;font-variant:normal;font-weight:bold;font-stretch:semi-condensed;font-family:'DejaVu Sans';-inkscape-font-specification:'DejaVu Sans Bold Semi-Condensed';fill:#714a7e;fill-opacity:1"
         id="path1061" />
      <path
         d="m 104.39697,104.39419 v 2.31689 q -0.51575,-0.39673 -1.04737,-0.58716 -0.52368,-0.19043 -1.08703,-0.19043 -1.07117,0 -1.66626,0.69825 -0.5951,0.6903 -0.5951,1.93603 0,1.24573 0.5951,1.94397 0.59509,0.69031 1.66626,0.69031 0.60302,0 1.14258,-0.19837 0.53955,-0.19836 0.99182,-0.58715 v 2.32483 q -0.5951,0.24597 -1.21399,0.36499 -0.6189,0.12695 -1.2378,0.12695 -2.166133,0 -3.388057,-1.22986 -1.221924,-1.23779 -1.221924,-3.43567 0,-2.19787 1.221924,-3.42773 1.221924,-1.2378 3.388057,-1.2378 0.62684,0 1.2378,0.12696 0.61096,0.11902 1.21399,0.36499 z"
         style="font-style:normal;font-variant:normal;font-weight:bold;font-stretch:semi-condensed;font-family:'DejaVu Sans';-inkscape-font-specification:'DejaVu Sans Bold Semi-Condensed';fill:#714a7e;fill-opacity:1"
         id="path1063" />
      <path
         d="m 118.14758,104.39419 v 2.31689 q -0.51575,-0.39673 -1.04737,-0.58716 -0.52368,-0.19043 -1.08703,-0.19043 -1.07117,0 -1.66626,0.69825 -0.5951,0.6903 -0.5951,1.93603 0,1.24573 0.5951,1.94397 0.59509,0.69031 1.66626,0.69031 0.60302,0 1.14258,-0.19837 0.53955,-0.19836 0.99182,-0.58715 v 2.32483 q -0.5951,0.24597 -1.21399,0.36499 -0.6189,0.12695 -1.2378,0.12695 -2.16613,0 -3.38806,-1.22986 -1.22192,-1.23779 -1.22192,-3.43567 0,-2.19787 1.22192,-3.42773 1.22193,-1.2378 3.38806,-1.2378 0.62684,0 1.2378,0.12696 0.61096,0.11902 1.21399,0.36499 z"
         style="font-style:normal;font-variant:normal;font-weight:bold;font-stretch:semi-condensed;font-family:'DejaVu Sans';-inkscape-font-specification:'DejaVu Sans Bold Semi-Condensed';fill:#5a7a94;fill-opacity:1"
         id="path1065" />
      <path
         d="m 124.15405,105.93349 q -0.849,0 -1.29334,0.68238 -0.44433,0.67444 -0.44433,1.9519 0,1.27747 0.44433,1.95984 0.44434,0.67444 1.29334,0.67444 0.84106,0 1.27746,-0.67444 0.44434,-0.68237 0.44434,-1.95984 0,-1.27746 -0.44434,-1.9519 -0.4364,-0.68238 -1.27746,-0.68238 z m 0,-2.03125 q 2.07092,0 3.22937,1.2378 1.15844,1.23779 1.15844,3.42773 0,2.18994 -1.15844,3.42774 -1.15845,1.23779 -3.22937,1.23779 -2.06299,0 -3.23731,-1.23779 -1.16638,-1.2378 -1.16638,-3.42774 0,-2.18994 1.16638,-3.42773 1.17432,-1.2378 3.23731,-1.2378 z"
         style="font-style:normal;font-variant:normal;font-weight:bold;font-stretch:semi-condensed;font-family:'DejaVu Sans';-inkscape-font-specification:'DejaVu Sans Bold Semi-Condensed';fill:#5a7a94;fill-opacity:1"
         id="path1067" />
      <path
         d="m 138.38073,108.53603 v 0.80933 H 132.406 q 0.0873,0.99976 0.6427,1.49963 0.56335,0.49988 1.56311,0.49988 0.80933,0 1.65039,-0.26184 0.849,-0.26977 1.73767,-0.80933 v 2.18995 q -0.90454,0.38086 -1.81701,0.57128 -0.90455,0.19837 -1.80909,0.19837 -2.17407,0 -3.38012,-1.22192 -1.19812,-1.22986 -1.19812,-3.44361 0,-2.17407 1.18225,-3.4198 1.18225,-1.24573 3.25317,-1.24573 1.88843,0 3.01514,1.2616 1.13464,1.2616 1.13464,3.37219 z m -2.62634,-0.94421 q 0,-0.80933 -0.42847,-1.30127 -0.42053,-0.49988 -1.11084,-0.49988 -0.73791,0 -1.20605,0.46814 -0.46021,0.46021 -0.57923,1.33301 z"
         style="font-style:normal;font-variant:normal;font-weight:bold;font-stretch:semi-condensed;font-family:'DejaVu Sans';-inkscape-font-specification:'DejaVu Sans Bold Semi-Condensed';fill:#5a7a94;fill-opacity:1"
         id="path1069" />
      <path
         d="m 139.30908,104.11648 h 2.55493 l 1.99157,6.14136 1.98365,-6.14136 h 2.56286 L 145.26,113.0032 h -2.80883 z"
         style="font-style:normal;font-variant:normal;font-weight:bold;font-stretch:semi-condensed;font-family:'DejaVu Sans';-inkscape-font-specification:'DejaVu Sans Bold Semi-Condensed';fill:#5a7a94;fill-opacity:1"
         id="path1071" />
      <path
         d="m 153.43261,109.00417 q -0.80139,0 -1.20605,0.30152 -0.40467,0.30151 -0.40467,0.88867 0,0.53955 0.32532,0.849 0.32532,0.30151 0.90454,0.30151 0.72205,0 1.21399,-0.57129 0.49194,-0.57922 0.49194,-1.44409 v -0.32532 z m 3.90381,-1.07116 v 5.07019 h -2.57874 v -1.31714 q -0.51574,0.80932 -1.15844,1.18225 -0.6427,0.36499 -1.56311,0.36499 -1.24573,0 -2.02332,-0.80139 -0.76965,-0.80933 -0.76965,-2.09473 0,-1.56311 0.96802,-2.29309 0.96801,-0.72998 3.03894,-0.72998 h 1.50756 v -0.22217 q 0,-0.67444 -0.484,-0.98388 -0.47608,-0.31739 -1.48377,-0.31739 -0.82519,0 -1.53137,0.1825 -0.70618,0.18249 -1.31714,0.54748 v -2.16613 q 0.8252,-0.22217 1.65039,-0.33326 0.83313,-0.11902 1.65833,-0.11902 2.16613,0 3.12622,0.95215 0.96008,0.94422 0.96008,3.07862 z"
         style="font-style:normal;font-variant:normal;font-weight:bold;font-stretch:semi-condensed;font-family:'DejaVu Sans';-inkscape-font-specification:'DejaVu Sans Bold Semi-Condensed';fill:#5a7a94;fill-opacity:1"
         id="path1073" />
      <path
         d="m 159.70886,100.65701 h 2.55493 v 12.34619 h -2.55493 z"
         style="font-style:normal;font-variant:normal;font-weight:bold;font-stretch:semi-condensed;font-family:'DejaVu Sans';-inkscape-font-specification:'DejaVu Sans Bold Semi-Condensed';fill:#5a7a94;fill-opacity:1"
         id="path1075" />
      <path
         d="m 164.71557,104.11648 h 2.55493 v 8.88672 h -2.55493 z m 0,-3.45947 h 2.55493 v 2.31689 h -2.55493 z"
         style="font-style:normal;font-variant:normal;font-weight:bold;font-stretch:semi-condensed;font-family:'DejaVu Sans';-inkscape-font-specification:'DejaVu Sans Bold Semi-Condensed';fill:#5a7a94;fill-opacity:1"
         id="path1077" />
      <path
         d="m 172.51525,101.59328 v 2.5232 h 2.63428 v 2.03125 h -2.63428 v 3.76892 q 0,0.6189 0.21424,0.84106 0.22216,0.21424 0.88073,0.21424 h 1.31714 v 2.03125 h -2.18994 q -1.5155,0 -2.15027,-0.69825 -0.63476,-0.70617 -0.63476,-2.3883 v -3.76892 h -1.26953 v -2.03125 h 1.26953 v -2.5232 z"
         style="font-style:normal;font-variant:normal;font-weight:bold;font-stretch:semi-condensed;font-family:'DejaVu Sans';-inkscape-font-specification:'DejaVu Sans Bold Semi-Condensed';fill:#5a7a94;fill-opacity:1"
         id="path1079" />
      <path
         d="m 175.65734,104.11648 h 2.56287 l 2.15027,6.03027 1.82495,-6.03027 h 2.55493 l -3.36426,9.72778 q -0.50781,1.48377 -1.18225,2.07092 -0.67444,0.5951 -1.77734,0.5951 h -1.48377 v -1.86463 h 0.80139 q 0.65064,0 0.94422,-0.2301 0.30151,-0.2301 0.46814,-0.8252 l 0.0714,-0.24597 z"
         style="font-style:normal;font-variant:normal;font-weight:bold;font-stretch:semi-condensed;font-family:'DejaVu Sans';-inkscape-font-specification:'DejaVu Sans Bold Semi-Condensed';fill:#5a7a94;fill-opacity:1"
         id="path1081" />
    </g>
    <g
       id="g872"
       transform="translate(1.567987,61.923485)"
       style="display:inline">
      <g
         aria-label="Phyco val"
         transform="translate(-9.2380199,-497.19897)"
         id="text4136-2"
         style="font-style:normal;font-weight:normal;line-height:0%;font-family:sans-serif;letter-spacing:0px;word-spacing:0px;fill:#000000;fill-opacity:1;stroke:none;stroke-width:1px;stroke-linecap:butt;stroke-linejoin:miter;stroke-opacity:1">
        <path
           d="m 13.715559,498.27563 h 9.82666 q 3.605957,0 5.639649,1.84571 2.050781,1.82861 2.050781,5.09277 0,1.99951 -0.683594,3.81104 -0.683594,1.79443 -1.931152,3.14453 -1.367188,1.45263 -3.26416,2.11914 -1.896973,0.64941 -4.750977,0.64941 h -3.913574 l -1.538086,8.85254 H 9.2380199 Z m 5.092773,4.76807 -1.247558,7.12647 h 3.26416 q 2.102051,0 3.195801,-1.09375 1.11084,-1.09375 1.11084,-3.17871 0,-1.38428 -0.786133,-2.11915 -0.786133,-0.73486 -2.290039,-0.73486 z"
           style="font-style:oblique;font-variant:normal;font-weight:bold;font-stretch:semi-condensed;font-size:35px;font-family:'DejaVu Sans';-inkscape-font-specification:'DejaVu Sans Bold Oblique Semi-Condensed';fill:#714a7e;fill-opacity:1"
           id="path1024" />
        <path
           d="m 51.962629,512.1355 -2.050781,11.65527 h -5.520019 l 1.743164,-9.98047 q 0.187988,-0.97412 0.273437,-1.64062 0.102539,-0.6836 0.102539,-1.07666 0,-1.09375 -0.546875,-1.6919 -0.546875,-0.59814 -1.538086,-0.59814 -1.708984,0 -2.939453,1.48681 -1.213379,1.46973 -1.691894,4.08448 l -1.657715,9.4165 h -5.52002 l 4.631348,-26.5918 h 5.537109 l -1.794433,10.25391 q 1.520996,-1.65771 3.059082,-2.46094 1.538086,-0.80322 3.21289,-0.80322 2.392578,0 3.674317,1.38428 1.298828,1.38428 1.298828,3.89648 0,0.54688 -0.06836,1.21338 -0.06836,0.66651 -0.205078,1.45264 z"
           style="font-style:oblique;font-variant:normal;font-weight:bold;font-stretch:semi-condensed;font-size:35px;font-family:'DejaVu Sans';-inkscape-font-specification:'DejaVu Sans Bold Oblique Semi-Condensed';fill:#714a7e;fill-opacity:1"
           id="path1026" />
        <path
           d="m 56.149641,504.65015 h 5.195313 l 2.358398,13.26172 6.118164,-13.26172 h 5.878906 l -10.90332,20.95214 q -1.828613,3.5376 -3.383789,4.63135 -1.555176,1.11084 -4.016113,1.11084 h -3.33252 l 0.563965,-4.01611 h 1.743164 q 1.350098,0 2.102051,-0.5127 0.751953,-0.4956 1.333008,-1.76025 l 0.495605,-1.02539 z"
           style="font-style:oblique;font-variant:normal;font-weight:bold;font-stretch:semi-condensed;font-size:35px;font-family:'DejaVu Sans';-inkscape-font-specification:'DejaVu Sans Bold Oblique Semi-Condensed';fill:#714a7e;fill-opacity:1"
           id="path1028" />
        <path
           d="m 92.892805,505.24829 -0.871582,4.99024 q -1.11084,-0.82032 -2.1875,-1.24756 -1.07666,-0.42725 -2.102051,-0.42725 -2.700195,0 -4.409179,2.0166 -1.708985,1.99951 -1.708985,5.12696 0,1.99951 1.059571,3.11035 1.07666,1.09375 3.007812,1.09375 1.281738,0 2.529297,-0.42725 1.247559,-0.42725 2.375488,-1.26465 l -0.854492,5.00733 q -1.367187,0.52978 -2.751465,0.78613 -1.384277,0.27344 -2.785644,0.27344 -4.050293,0 -6.254883,-2.0166 -2.1875,-2.0337 -2.1875,-5.75928 0,-2.34131 0.803222,-4.5459 0.820313,-2.20459 2.324219,-3.96484 1.674805,-1.93116 3.845215,-2.8711 2.17041,-0.93994 5.007324,-0.93994 1.298828,0 2.580567,0.27344 1.298828,0.25635 2.580566,0.78613 z"
           style="font-style:oblique;font-variant:normal;font-weight:bold;font-stretch:semi-condensed;font-size:35px;font-family:'DejaVu Sans';-inkscape-font-specification:'DejaVu Sans Bold Oblique Semi-Condensed';fill:#5a7a94;fill-opacity:1"
           id="path1030" />
        <path
           d="m 105.06077,508.56372 q -2.13623,0 -3.5205,2.15332 -1.38428,2.15332 -1.38428,5.48584 0,1.81152 0.73486,2.76856 0.75196,0.93994 2.1875,0.93994 2.13623,0 3.52051,-2.15332 1.38428,-2.17041 1.38428,-5.52002 0,-1.79444 -0.75196,-2.73438 -0.73486,-0.93994 -2.17041,-0.93994 z m 0.44434,-4.375 q 3.84521,0 6.0498,2.17041 2.20459,2.17041 2.20459,5.91309 0,2.17041 -0.70068,4.22119 -0.68359,2.03369 -2.0166,3.72558 -1.55518,2.01661 -3.7085,3.042 -2.13623,1.02539 -4.76806,1.02539 -3.793949,0 -5.981449,-2.17041 -2.1875,-2.17041 -2.1875,-5.91309 0,-2.15332 0.700684,-4.2041 0.700684,-2.06787 2.033691,-3.77686 1.538086,-1.98242 3.657224,-3.00781 2.13623,-1.02539 4.7168,-1.02539 z"
           style="font-style:oblique;font-variant:normal;font-weight:bold;font-stretch:semi-condensed;font-size:35px;font-family:'DejaVu Sans';-inkscape-font-specification:'DejaVu Sans Bold Oblique Semi-Condensed';fill:#5a7a94;fill-opacity:1"
           id="path1032" />
        <path
           d="m 139.56151,504.65015 h 5.07568 l 2.23877,13.36425 6.47705,-13.36425 h 5.58838 l -10.11719,19.14062 h -5.82764 z"
           style="font-style:oblique;font-variant:normal;font-weight:bold;font-stretch:semi-condensed;font-size:35px;font-family:'DejaVu Sans';-inkscape-font-specification:'DejaVu Sans Bold Oblique Semi-Condensed';fill:#5a7a94;fill-opacity:1"
           id="path1034" />
        <path
           d="m 168.47752,515.17749 q -2.06787,0 -3.12744,0.71777 -1.04248,0.70069 -1.04248,2.08496 0,1.04249 0.61523,1.64063 0.63233,0.59814 1.72608,0.59814 1.6748,0 2.81982,-1.12793 1.14502,-1.14502 1.521,-3.21289 l 0.11963,-0.70068 z m 8.59619,-2.30713 -1.93115,10.92041 h -5.50293 l 0.46143,-2.83691 q -1.3501,1.70898 -2.8711,2.52929 -1.5039,0.80323 -3.26416,0.80323 -2.44384,0 -3.87939,-1.40137 -1.43555,-1.41846 -1.43555,-3.81104 0,-3.65722 2.5293,-5.58837 2.54639,-1.94825 7.34863,-1.94825 h 3.24707 l 0.0684,-0.47851 q 0.0342,-0.23926 0.0342,-0.3418 0.0171,-0.10254 0.0171,-0.18799 0,-1.12793 -0.95703,-1.69189 -0.95703,-0.58106 -2.854,-0.58106 -1.70899,0 -3.31543,0.39307 -1.58936,0.39307 -3.07618,1.1792 l 0.82032,-4.66553 q 1.72607,-0.47851 3.53759,-0.71777 1.81153,-0.25635 3.74268,-0.25635 3.82812,0 5.69092,1.46973 1.86279,1.45263 1.86279,4.44336 0,0.58105 -0.0684,1.28173 -0.0684,0.6836 -0.20508,1.48682 z"
           style="font-style:oblique;font-variant:normal;font-weight:bold;font-stretch:semi-condensed;font-size:35px;font-family:'DejaVu Sans';-inkscape-font-specification:'DejaVu Sans Bold Oblique Semi-Condensed';fill:#5a7a94;fill-opacity:1"
           id="path1036" />
        <path
           d="m 184.95213,497.19897 h 5.53711 l -4.64844,26.5918 h -5.52002 z"
           style="font-style:oblique;font-variant:normal;font-weight:bold;font-stretch:semi-condensed;font-size:35px;font-family:'DejaVu Sans';-inkscape-font-specification:'DejaVu Sans Bold Oblique Semi-Condensed';fill:#5a7a94;fill-opacity:1"
           id="path1038" />
      </g>
      <path
         style="display:inline;fill:none;stroke:#000000;stroke-width:2.34375;stroke-linecap:butt;stroke-linejoin:miter;stroke-miterlimit:4;stroke-dasharray:none;stroke-dashoffset:0;stroke-opacity:0.404988"
         d="m 113.90639,-1.533289 v 37.5"
         id="path1020" />
      <path
         style="fill:none;stroke:#000000;stroke-width:2.34375;stroke-linecap:butt;stroke-linejoin:miter;stroke-miterlimit:4;stroke-dasharray:none;stroke-opacity:1"
         d="m 127.96889,3.1542119 h -14.0625 V 14.482336 h 14.0625"
         id="path986" />
      <path
         style="fill:none;stroke:#000000;stroke-width:2.34375;stroke-linecap:butt;stroke-linejoin:miter;stroke-miterlimit:4;stroke-dasharray:none;stroke-opacity:1"
         d="m 127.96889,20.029211 h -14.0625 v 11.328125 h 14.0625"
         id="path986-8" />
      <path
         style="fill:none;stroke:#000000;stroke-width:2.34375;stroke-linecap:butt;stroke-linejoin:miter;stroke-miterlimit:4;stroke-dasharray:none;stroke-opacity:1"
         d="m 113.90639,8.818274 h -5.62499 v 16.835937 h 5.62499"
         id="path1008" />
    </g>
  </g>
</svg>
