<?xml version="1.0" encoding="UTF-8" standalone="no"?>
<svg
   xmlns:dc="http://purl.org/dc/elements/1.1/"
   xmlns:cc="http://creativecommons.org/ns#"
   xmlns:rdf="http://www.w3.org/1999/02/22-rdf-syntax-ns#"
   xmlns:svg="http://www.w3.org/2000/svg"
   xmlns="http://www.w3.org/2000/svg"
   xmlns:sodipodi="http://sodipodi.sourceforge.net/DTD/sodipodi-0.dtd"
   xmlns:inkscape="http://www.inkscape.org/namespaces/inkscape"
   width="200.02982mm"
   height="9.6366215mm"
   viewBox="0 0 708.76706 34.145509"
   id="svg2"
   version="1.1"
   inkscape:version="1.0.2 (e86c870879, 2021-01-15)"
   sodipodi:docname="ecoevolity-logo.svg">
  <defs
     id="defs4" />
  <sodipodi:namedview
     id="base"
     pagecolor="#ffffff"
     bordercolor="#666666"
     borderopacity="1.0"
     inkscape:pageopacity="0.0"
     inkscape:pageshadow="2"
     inkscape:zoom="1.4"
     inkscape:cx="371.05247"
     inkscape:cy="-1.0177223"
     inkscape:document-units="px"
     inkscape:current-layer="layer1"
     showgrid="false"
     fit-margin-top="0"
     fit-margin-left="0"
     fit-margin-right="0"
     fit-margin-bottom="0"
     inkscape:window-width="1920"
     inkscape:window-height="1016"
     inkscape:window-x="0"
     inkscape:window-y="27"
     inkscape:window-maximized="1"
     inkscape:document-rotation="0" />
  <metadata
     id="metadata7">
    <rdf:RDF>
      <cc:Work
         rdf:about="">
        <dc:format>image/svg+xml</dc:format>
        <dc:type
           rdf:resource="http://purl.org/dc/dcmitype/StillImage" />
        <dc:title />
      </cc:Work>
    </rdf:RDF>
  </metadata>
  <g
     inkscape:label="Layer 1"
     inkscape:groupmode="layer"
     id="layer1"
     transform="translate(-9.2380199,-497.19897)">
    <g
       aria-label="Ecoevolity: Estimating evolutionary coevality"
       id="text4136"
       style="font-style:normal;font-weight:normal;line-height:0%;font-family:sans-serif;letter-spacing:0px;word-spacing:0px;fill:#000000;fill-opacity:1;stroke:none;stroke-width:1px;stroke-linecap:butt;stroke-linejoin:miter;stroke-opacity:1">
      <path
         d="m 13.715559,498.27563 h 15.961914 l -0.871582,4.97315 H 18.757063 l -0.837402,4.75098 h 9.467773 l -0.905762,4.97314 h -9.433593 l -1.025391,5.84473 h 10.373535 l -0.837402,4.97314 H 9.2380199 Z"
         style="font-style:oblique;font-variant:normal;font-weight:bold;font-stretch:semi-condensed;font-size:35px;font-family:'DejaVu Sans';-inkscape-font-specification:'DejaVu Sans Bold Oblique Semi-Condensed';fill:#32a251;fill-opacity:1"
         id="path839" />
      <path
         d="m 48.390852,505.24829 -0.871582,4.99024 q -1.11084,-0.82032 -2.1875,-1.24756 -1.07666,-0.42725 -2.102051,-0.42725 -2.700195,0 -4.40918,2.0166 -1.708984,1.99951 -1.708984,5.12696 0,1.99951 1.05957,3.11035 1.076661,1.09375 3.007813,1.09375 1.281738,0 2.529297,-0.42725 1.247558,-0.42725 2.375488,-1.26465 l -0.854492,5.00733 q -1.367188,0.52978 -2.751465,0.78613 -1.384277,0.27344 -2.785644,0.27344 -4.050293,0 -6.254883,-2.0166 -2.1875,-2.0337 -2.1875,-5.75928 0,-2.34131 0.803222,-4.5459 0.820313,-2.20459 2.324219,-3.96484 1.674805,-1.93116 3.845215,-2.8711 2.17041,-0.93994 5.007324,-0.93994 1.298828,0 2.580567,0.27344 1.298828,0.25635 2.580566,0.78613 z"
         style="font-style:oblique;font-variant:normal;font-weight:bold;font-stretch:semi-condensed;font-size:35px;font-family:'DejaVu Sans';-inkscape-font-specification:'DejaVu Sans Bold Oblique Semi-Condensed';fill:#39737c;fill-opacity:1"
         id="path841" />
      <path
         d="m 60.558821,508.56372 q -2.136231,0 -3.520508,2.15332 -1.384277,2.15332 -1.384277,5.48584 0,1.81152 0.734863,2.76856 0.751953,0.93994 2.1875,0.93994 2.13623,0 3.520508,-2.15332 1.384277,-2.17041 1.384277,-5.52002 0,-1.79444 -0.751953,-2.73438 -0.734863,-0.93994 -2.17041,-0.93994 z m 0.444336,-4.375 q 3.845215,0 6.049804,2.17041 2.20459,2.17041 2.20459,5.91309 0,2.17041 -0.700683,4.22119 -0.683594,2.03369 -2.016602,3.72558 -1.555176,2.01661 -3.708496,3.042 -2.136231,1.02539 -4.768066,1.02539 -3.793946,0 -5.981446,-2.17041 -2.1875,-2.17041 -2.1875,-5.91309 0,-2.15332 0.700684,-4.2041 0.700683,-2.06787 2.033691,-3.77686 1.538086,-1.98242 3.657227,-3.00781 2.13623,-1.02539 4.716797,-1.02539 z"
         style="font-style:oblique;font-variant:normal;font-weight:bold;font-stretch:semi-condensed;font-size:35px;font-family:'DejaVu Sans';-inkscape-font-specification:'DejaVu Sans Bold Oblique Semi-Condensed';fill:#39737c;fill-opacity:1"
         id="path843" />
      <path
         d="m 90.19261,514.93823 -0.187988,0.97412 H 77.118879 q 0,0.10254 -0.01709,0.30762 -0.01709,0.18799 -0.01709,0.29053 0,1.86279 1.0083,2.78564 1.008301,0.92285 3.024903,0.92285 1.743164,0 3.674316,-0.58105 1.931153,-0.58106 4.050293,-1.72607 l -0.854492,4.75097 q -1.999512,0.82031 -3.999023,1.21338 -1.982422,0.41016 -4.050293,0.41016 -4.033204,0 -6.220704,-2.06787 -2.1875,-2.06788 -2.1875,-5.84473 0,-2.1875 0.683594,-4.23828 0.700684,-2.06787 2.050781,-3.77686 1.589356,-2.05078 3.793946,-3.11035 2.20459,-1.05957 4.887695,-1.05957 3.503418,0 5.554199,2.06787 2.050782,2.06787 2.050782,5.57129 0,0.68359 -0.08545,1.45264 -0.08545,0.75195 -0.273437,1.65771 z m -5.195313,-2.80273 q 0.05127,-0.22217 0.06836,-0.44434 0.01709,-0.23926 0.01709,-0.46142 0,-1.36719 -0.734864,-2.17041 -0.734863,-0.80323 -1.999511,-0.80323 -1.606446,0 -2.751465,0.99121 -1.12793,0.97413 -1.726075,2.88819 z"
         style="font-style:oblique;font-variant:normal;font-weight:bold;font-stretch:semi-condensed;font-size:35px;font-family:'DejaVu Sans';-inkscape-font-specification:'DejaVu Sans Bold Oblique Semi-Condensed';fill:#b85a0d;fill-opacity:1"
         id="path845" />
      <path
         d="m 93.730207,504.65015 h 5.075684 l 2.238769,13.36425 6.47705,-13.36425 h 5.58838 l -10.11719,19.14062 h -5.827634 z"
         style="font-style:oblique;font-variant:normal;font-weight:bold;font-stretch:semi-condensed;font-size:35px;font-family:'DejaVu Sans';-inkscape-font-specification:'DejaVu Sans Bold Oblique Semi-Condensed';fill:#b85a0d;fill-opacity:1"
         id="path847" />
      <path
         d="m 124.08177,508.56372 q -2.13623,0 -3.52051,2.15332 -1.38428,2.15332 -1.38428,5.48584 0,1.81152 0.73487,2.76856 0.75195,0.93994 2.1875,0.93994 2.13623,0 3.52051,-2.15332 1.38427,-2.17041 1.38427,-5.52002 0,-1.79444 -0.75195,-2.73438 -0.73486,-0.93994 -2.17041,-0.93994 z m 0.44434,-4.375 q 3.84521,0 6.0498,2.17041 2.20459,2.17041 2.20459,5.91309 0,2.17041 -0.70068,4.22119 -0.6836,2.03369 -2.0166,3.72558 -1.55518,2.01661 -3.7085,3.042 -2.13623,1.02539 -4.76807,1.02539 -3.79394,0 -5.98144,-2.17041 -2.1875,-2.17041 -2.1875,-5.91309 0,-2.15332 0.70068,-4.2041 0.70068,-2.06787 2.03369,-3.77686 1.53809,-1.98242 3.65723,-3.00781 2.13623,-1.02539 4.7168,-1.02539 z"
         style="font-style:oblique;font-variant:normal;font-weight:bold;font-stretch:semi-condensed;font-size:35px;font-family:'DejaVu Sans';-inkscape-font-specification:'DejaVu Sans Bold Oblique Semi-Condensed';fill:#b85a0d;fill-opacity:1"
         id="path849" />
      <path
         d="m 139.5139,497.19897 h 5.53711 l -4.64844,26.5918 h -5.52002 z"
         style="font-style:oblique;font-variant:normal;font-weight:bold;font-stretch:semi-condensed;font-size:35px;font-family:'DejaVu Sans';-inkscape-font-specification:'DejaVu Sans Bold Oblique Semi-Condensed';fill:#39737c;fill-opacity:1"
         id="path851" />
      <path
         d="m 149.01585,504.65015 h 5.53711 l -3.3667,19.14062 h -5.52002 z m 1.28174,-7.45118 h 5.53711 l -0.87158,4.99024 h -5.5542 z"
         style="font-style:oblique;font-variant:normal;font-weight:bold;font-stretch:semi-condensed;font-size:35px;font-family:'DejaVu Sans';-inkscape-font-specification:'DejaVu Sans Bold Oblique Semi-Condensed';fill:#39737c;fill-opacity:1"
         id="path853" />
      <path
         d="m 166.80638,499.21558 -0.93994,5.43457 h 5.63965 l -0.78614,4.375 h -5.63964 l -1.40137,8.10058 q -0.0684,0.27344 -0.10254,0.46143 -0.0171,0.18799 -0.0171,0.35888 0,0.78614 0.46142,1.12793 0.47852,0.3418 1.58936,0.3418 h 2.854 l -0.78613,4.375 h -4.63135 q -2.49511,0 -3.81103,-1.16211 -1.29883,-1.16211 -1.29883,-3.34961 0,-0.47851 0.0342,-1.02539 0.0513,-0.54687 0.15381,-1.11084 l 1.41846,-8.11767 h -2.71729 l 0.75195,-4.375 h 2.75147 l 0.93994,-5.43457 z"
         style="font-style:oblique;font-variant:normal;font-weight:bold;font-stretch:semi-condensed;font-size:35px;font-family:'DejaVu Sans';-inkscape-font-specification:'DejaVu Sans Bold Oblique Semi-Condensed';fill:#39737c;fill-opacity:1"
         id="path855" />
      <path
         d="m 172.61693,504.65015 h 5.19531 l 2.3584,13.26172 6.11816,-13.26172 h 5.87891 l -10.90332,20.95214 q -1.82862,3.5376 -3.38379,4.63135 -1.55518,1.11084 -4.01612,1.11084 h -3.33251 l 0.56396,-4.01611 h 1.74316 q 1.3501,0 2.10205,-0.5127 0.75196,-0.4956 1.33301,-1.76025 l 0.49561,-1.02539 z"
         style="font-style:oblique;font-variant:normal;font-weight:bold;font-stretch:semi-condensed;font-size:35px;font-family:'DejaVu Sans';-inkscape-font-specification:'DejaVu Sans Bold Oblique Semi-Condensed';fill:#39737c;fill-opacity:1"
         id="path857" />
      <path
         d="m 194.74827,519.44995 h 3.24707 v 4.34082 h -3.24707 z m 0,-13.75732 h 3.24707 v 4.34082 h -3.24707 z"
         style="font-size:35px"
         id="path859" />
      <path
         d="m 214.32591,500.46265 h 14.60938 v 4.54687 h -9.1875 v 4.34375 h 8.64062 v 4.54688 h -8.64062 v 5.34375 h 9.5 v 4.54687 h -14.92188 z"
         style="font-style:normal;font-variant:normal;font-weight:bold;font-stretch:semi-condensed;font-family:'DejaVu Sans';-inkscape-font-specification:'DejaVu Sans Bold Semi-Condensed';fill:#32a251;fill-opacity:1"
         id="path861" />
      <path
         d="m 244.10716,506.8064 v 2.71875 q -1.09375,-0.625 -2.28125,-0.9375 -1.17187,-0.3125 -2.4375,-0.3125 -1.92187,0 -2.89062,0.65625 -0.96875,0.65625 -0.96875,1.96875 0,1 0.6875,1.57812 0.70312,0.5625 2.78125,1.07813 l 0.875,0.21875 q 2.76562,0.65625 3.92187,1.85937 1.15625,1.1875 1.15625,3.32813 0,2.4375 -1.73437,3.85937 -1.73438,1.42188 -4.76563,1.42188 -1.26562,0 -2.64062,-0.28125 -1.375,-0.26563 -2.89063,-0.8125 v -2.96875 q 1.4375,0.82812 2.82813,1.25 1.39062,0.40625 2.75,0.40625 1.82812,0 2.8125,-0.6875 0.98437,-0.70313 0.98437,-1.96875 0,-1.17188 -0.71875,-1.79688 -0.70312,-0.625 -3.10937,-1.20312 l -0.89063,-0.23438 q -2.40625,-0.5625 -3.48437,-1.71875 -1.0625,-1.17187 -1.0625,-3.20312 0,-2.46875 1.57812,-3.8125 1.57813,-1.34375 4.46875,-1.34375 1.4375,0 2.70313,0.23437 1.26562,0.23438 2.32812,0.70313 z"
         style="font-style:normal;font-variant:normal;font-weight:normal;font-stretch:semi-condensed;font-size:32px;line-height:1.25;font-family:'DejaVu Sans';-inkscape-font-specification:'DejaVu Sans Semi-Condensed'"
         id="path863" />
      <path
         d="m 251.63841,501.32202 v 4.96875 h 5.32813 v 2.23438 h -5.32813 v 9.5 q 0,2.14062 0.51563,2.75 0.53125,0.60937 2.14062,0.60937 h 2.67188 v 2.40625 h -2.67188 q -2.98437,0 -4.125,-1.23437 -1.14062,-1.25 -1.14062,-4.53125 v -9.5 h -1.89063 v -2.23438 h 1.89063 v -4.96875 z"
         style="font-style:normal;font-variant:normal;font-weight:normal;font-stretch:semi-condensed;font-size:32px;line-height:1.25;font-family:'DejaVu Sans';-inkscape-font-specification:'DejaVu Sans Semi-Condensed'"
         id="path865" />
      <path
         d="m 260.35716,506.29077 h 2.57813 v 17.5 h -2.57813 z m 0,-6.8125 h 2.57813 v 3.64063 h -2.57813 z"
         style="font-style:normal;font-variant:normal;font-weight:normal;font-stretch:semi-condensed;font-size:32px;line-height:1.25;font-family:'DejaVu Sans';-inkscape-font-specification:'DejaVu Sans Semi-Condensed'"
         id="path867" />
      <path
         d="m 280.60716,509.65015 q 0.98438,-1.9375 2.32813,-2.85938 1.34375,-0.92187 3.17187,-0.92187 2.46875,0 3.79688,1.92187 1.34375,1.90625 1.34375,5.4375 v 10.5625 h -2.60938 v -10.46875 q 0,-2.51562 -0.79687,-3.73437 -0.79688,-1.21875 -2.45313,-1.21875 -2,0 -3.17187,1.48437 -1.17188,1.48438 -1.17188,4.04688 v 9.89062 h -2.59375 v -10.46875 q 0,-2.53125 -0.8125,-3.73437 -0.79687,-1.21875 -2.46875,-1.21875 -1.98437,0 -3.15625,1.5 -1.15625,1.48437 -1.15625,4.03125 v 9.89062 h -2.60937 v -17.5 h 2.60937 v 2.71875 q 0.89063,-1.60937 2.125,-2.375 1.23438,-0.76562 2.9375,-0.76562 1.71875,0 2.92188,0.96875 1.20312,0.96875 1.76562,2.8125 z"
         style="font-style:normal;font-variant:normal;font-weight:normal;font-stretch:semi-condensed;font-size:32px;line-height:1.25;font-family:'DejaVu Sans';-inkscape-font-specification:'DejaVu Sans Semi-Condensed'"
         id="path869" />
      <path
         d="m 303.56029,514.9939 q -3.14063,0 -4.35938,0.79687 -1.20312,0.79688 -1.20312,2.71875 0,1.53125 0.90625,2.4375 0.90625,0.89063 2.46875,0.89063 2.15625,0 3.45312,-1.6875 1.29688,-1.70313 1.29688,-4.51563 v -0.64062 z m 5.15625,-1.1875 v 9.98437 h -2.59375 v -2.65625 q -0.875,1.59375 -2.20313,2.35938 -1.3125,0.75 -3.23437,0.75 -2.42188,0 -3.84375,-1.5 -1.42188,-1.51563 -1.42188,-4.04688 0,-2.95312 1.76563,-4.45312 1.78125,-1.5 5.3125,-1.5 h 3.625 v -0.28125 q 0,-1.98438 -1.17188,-3.0625 -1.17187,-1.09375 -3.29687,-1.09375 -1.34375,0 -2.625,0.35937 -1.28125,0.35938 -2.46875,1.07813 v -2.65625 q 1.42187,-0.60938 2.75,-0.90625 1.34375,-0.3125 2.60937,-0.3125 3.42188,0 5.10938,1.96875 1.6875,1.96875 1.6875,5.96875 z"
         style="font-style:normal;font-variant:normal;font-weight:normal;font-stretch:semi-condensed;font-size:32px;line-height:1.25;font-family:'DejaVu Sans';-inkscape-font-specification:'DejaVu Sans Semi-Condensed'"
         id="path871" />
      <path
         d="m 316.60716,501.32202 v 4.96875 h 5.32813 v 2.23438 h -5.32813 v 9.5 q 0,2.14062 0.51563,2.75 0.53125,0.60937 2.14062,0.60937 h 2.67188 v 2.40625 h -2.67188 q -2.98437,0 -4.125,-1.23437 -1.14062,-1.25 -1.14062,-4.53125 v -9.5 h -1.89063 v -2.23438 h 1.89063 v -4.96875 z"
         style="font-style:normal;font-variant:normal;font-weight:normal;font-stretch:semi-condensed;font-size:32px;line-height:1.25;font-family:'DejaVu Sans';-inkscape-font-specification:'DejaVu Sans Semi-Condensed'"
         id="path873" />
      <path
         d="m 325.32591,506.29077 h 2.57813 v 17.5 h -2.57813 z m 0,-6.8125 h 2.57813 v 3.64063 h -2.57813 z"
         style="font-style:normal;font-variant:normal;font-weight:normal;font-stretch:semi-condensed;font-size:32px;line-height:1.25;font-family:'DejaVu Sans';-inkscape-font-specification:'DejaVu Sans Semi-Condensed'"
         id="path875" />
      <path
         d="m 346.41966,513.22827 v 10.5625 h -2.59375 v -10.46875 q 0,-2.48437 -0.875,-3.71875 -0.875,-1.23437 -2.60937,-1.23437 -2.09375,0 -3.3125,1.48437 -1.20313,1.48438 -1.20313,4.04688 v 9.89062 h -2.60937 v -17.5 h 2.60937 v 2.71875 q 0.92188,-1.57812 2.17188,-2.35937 1.26562,-0.78125 2.92187,-0.78125 2.70313,0 4.09375,1.875 1.40625,1.85937 1.40625,5.48437 z"
         style="font-style:normal;font-variant:normal;font-weight:normal;font-stretch:semi-condensed;font-size:32px;line-height:1.25;font-family:'DejaVu Sans';-inkscape-font-specification:'DejaVu Sans Semi-Condensed'"
         id="path877" />
      <path
         d="m 361.93529,514.83765 q 0,-3.125 -1.17188,-4.84375 -1.15625,-1.71875 -3.25,-1.71875 -2.07812,0 -3.23437,1.71875 -1.15625,1.71875 -1.15625,4.84375 0,3.10937 1.15625,4.82812 1.15625,1.71875 3.23437,1.71875 2.09375,0 3.25,-1.71875 1.17188,-1.71875 1.17188,-4.82812 z m 2.59375,6.78125 q 0,4.46875 -1.79688,6.64062 -1.78125,2.1875 -5.46875,2.1875 -1.35937,0 -2.57812,-0.23437 -1.20313,-0.21875 -2.34375,-0.6875 v -2.79688 q 1.14062,0.6875 2.25,1.01563 1.10937,0.32812 2.26562,0.32812 2.54688,0 3.8125,-1.48437 1.26563,-1.46875 1.26563,-4.45313 v -1.42187 q -0.79688,1.54687 -2.04688,2.3125 -1.25,0.76562 -3,0.76562 -2.90625,0 -4.67187,-2.45312 -1.76563,-2.45313 -1.76563,-6.5 0,-4.0625 1.76563,-6.51563 1.76562,-2.45312 4.67187,-2.45312 1.75,0 3,0.76562 1.25,0.76563 2.04688,2.3125 v -2.65625 h 2.59375 z"
         style="font-style:normal;font-variant:normal;font-weight:normal;font-stretch:semi-condensed;font-size:32px;line-height:1.25;font-family:'DejaVu Sans';-inkscape-font-specification:'DejaVu Sans Semi-Condensed'"
         id="path879" />
      <path
         d="m 394.41966,514.9939 v 1.59375 h -11.76562 q 0.17187,1.96875 1.26562,2.95312 1.10938,0.98438 3.07813,0.98438 1.59375,0 3.25,-0.51563 1.67187,-0.53125 3.42187,-1.59375 v 4.3125 q -1.78125,0.75 -3.57812,1.125 -1.78125,0.39063 -3.5625,0.39063 -4.28125,0 -6.65625,-2.40625 -2.35938,-2.42188 -2.35938,-6.78125 0,-4.28125 2.32813,-6.73438 2.32812,-2.45312 6.40625,-2.45312 3.71875,0 5.9375,2.48437 2.23437,2.48438 2.23437,6.64063 z m -5.17187,-1.85938 q 0,-1.59375 -0.84375,-2.5625 -0.82813,-0.98437 -2.1875,-0.98437 -1.45313,0 -2.375,0.92187 -0.90625,0.90625 -1.14063,2.625 z"
         style="font-style:normal;font-variant:normal;font-weight:bold;font-stretch:semi-condensed;font-family:'DejaVu Sans';-inkscape-font-specification:'DejaVu Sans Bold Semi-Condensed';fill:#b85a0d;fill-opacity:1"
         id="path881" />
      <path
         d="m 396.24779,506.29077 h 5.03125 l 3.92187,12.09375 3.90625,-12.09375 h 5.04688 l -6.1875,17.5 h -5.53125 z"
         style="font-style:normal;font-variant:normal;font-weight:bold;font-stretch:semi-condensed;font-family:'DejaVu Sans';-inkscape-font-specification:'DejaVu Sans Bold Semi-Condensed';fill:#b85a0d;fill-opacity:1"
         id="path883" />
      <path
         d="m 424.48216,509.8689 q -1.67187,0 -2.54687,1.34375 -0.875,1.32812 -0.875,3.84375 0,2.51562 0.875,3.85937 0.875,1.32813 2.54687,1.32813 1.65625,0 2.51563,-1.32813 0.875,-1.34375 0.875,-3.85937 0,-2.51563 -0.875,-3.84375 -0.85938,-1.34375 -2.51563,-1.34375 z m 0,-4 q 4.07813,0 6.35938,2.4375 2.28125,2.4375 2.28125,6.75 0,4.3125 -2.28125,6.75 -2.28125,2.4375 -6.35938,2.4375 -4.0625,0 -6.375,-2.4375 -2.29687,-2.4375 -2.29687,-6.75 0,-4.3125 2.29687,-6.75 2.3125,-2.4375 6.375,-2.4375 z"
         style="font-style:normal;font-variant:normal;font-weight:bold;font-stretch:semi-condensed;font-family:'DejaVu Sans';-inkscape-font-specification:'DejaVu Sans Bold Semi-Condensed';fill:#b85a0d;fill-opacity:1"
         id="path885" />
      <path
         d="m 437.07591,499.47827 h 2.57813 v 24.3125 h -2.57813 z"
         style="font-style:normal;font-variant:normal;font-weight:normal;font-stretch:semi-condensed;font-size:32px;line-height:1.25;font-family:'DejaVu Sans';-inkscape-font-specification:'DejaVu Sans Semi-Condensed'"
         id="path887" />
      <path
         d="m 444.81029,516.88452 v -10.59375 h 2.57812 v 10.48438 q 0,2.48437 0.875,3.73437 0.875,1.23438 2.60938,1.23438 2.10937,0 3.3125,-1.48438 1.21875,-1.48437 1.21875,-4.04687 v -9.92188 h 2.59375 v 17.5 h -2.59375 v -2.6875 q -0.9375,1.59375 -2.1875,2.375 -1.23438,0.76563 -2.89063,0.76563 -2.70312,0 -4.10937,-1.875 -1.40625,-1.875 -1.40625,-5.48438 z m 6.5,-11.01562 z"
         style="font-style:normal;font-variant:normal;font-weight:normal;font-stretch:semi-condensed;font-size:32px;line-height:1.25;font-family:'DejaVu Sans';-inkscape-font-specification:'DejaVu Sans Semi-Condensed'"
         id="path889" />
      <path
         d="m 465.88841,501.32202 v 4.96875 h 5.32813 v 2.23438 h -5.32813 v 9.5 q 0,2.14062 0.51563,2.75 0.53125,0.60937 2.14062,0.60937 h 2.67188 v 2.40625 h -2.67188 q -2.98437,0 -4.125,-1.23437 -1.14062,-1.25 -1.14062,-4.53125 v -9.5 h -1.89063 v -2.23438 h 1.89063 v -4.96875 z"
         style="font-style:normal;font-variant:normal;font-weight:normal;font-stretch:semi-condensed;font-size:32px;line-height:1.25;font-family:'DejaVu Sans';-inkscape-font-specification:'DejaVu Sans Semi-Condensed'"
         id="path891" />
      <path
         d="m 474.60716,506.29077 h 2.57813 v 17.5 h -2.57813 z m 0,-6.8125 h 2.57813 v 3.64063 h -2.57813 z"
         style="font-style:normal;font-variant:normal;font-weight:normal;font-stretch:semi-condensed;font-size:32px;line-height:1.25;font-family:'DejaVu Sans';-inkscape-font-specification:'DejaVu Sans Semi-Condensed'"
         id="path893" />
      <path
         d="m 488.70091,508.3064 q -2.07812,0 -3.29687,1.8125 -1.20313,1.79687 -1.20313,4.9375 0,3.14062 1.20313,4.95312 1.20312,1.79688 3.29687,1.79688 2.07813,0 3.28125,-1.8125 1.20313,-1.8125 1.20313,-4.9375 0,-3.10938 -1.20313,-4.92188 -1.20312,-1.82812 -3.28125,-1.82812 z m 0,-2.4375 q 3.375,0 5.29688,2.4375 1.9375,2.4375 1.9375,6.75 0,4.29687 -1.9375,6.75 -1.92188,2.4375 -5.29688,2.4375 -3.39062,0 -5.3125,-2.4375 -1.90625,-2.45313 -1.90625,-6.75 0,-4.3125 1.90625,-6.75 1.92188,-2.4375 5.3125,-2.4375 z"
         style="font-style:normal;font-variant:normal;font-weight:normal;font-stretch:semi-condensed;font-size:32px;line-height:1.25;font-family:'DejaVu Sans';-inkscape-font-specification:'DejaVu Sans Semi-Condensed'"
         id="path895" />
      <path
         d="m 513.31029,513.22827 v 10.5625 h -2.59375 v -10.46875 q 0,-2.48437 -0.875,-3.71875 -0.875,-1.23437 -2.60938,-1.23437 -2.09375,0 -3.3125,1.48437 -1.20312,1.48438 -1.20312,4.04688 v 9.89062 h -2.60938 v -17.5 h 2.60938 v 2.71875 q 0.92187,-1.57812 2.17187,-2.35937 1.26563,-0.78125 2.92188,-0.78125 2.70312,0 4.09375,1.875 1.40625,1.85937 1.40625,5.48437 z"
         style="font-style:normal;font-variant:normal;font-weight:normal;font-stretch:semi-condensed;font-size:32px;line-height:1.25;font-family:'DejaVu Sans';-inkscape-font-specification:'DejaVu Sans Semi-Condensed'"
         id="path897" />
      <path
         d="m 525.62279,514.9939 q -3.14063,0 -4.35938,0.79687 -1.20312,0.79688 -1.20312,2.71875 0,1.53125 0.90625,2.4375 0.90625,0.89063 2.46875,0.89063 2.15625,0 3.45312,-1.6875 1.29688,-1.70313 1.29688,-4.51563 v -0.64062 z m 5.15625,-1.1875 v 9.98437 h -2.59375 v -2.65625 q -0.875,1.59375 -2.20313,2.35938 -1.3125,0.75 -3.23437,0.75 -2.42188,0 -3.84375,-1.5 -1.42188,-1.51563 -1.42188,-4.04688 0,-2.95312 1.76563,-4.45312 1.78125,-1.5 5.3125,-1.5 h 3.625 v -0.28125 q 0,-1.98438 -1.17188,-3.0625 -1.17187,-1.09375 -3.29687,-1.09375 -1.34375,0 -2.625,0.35937 -1.28125,0.35938 -2.46875,1.07813 v -2.65625 q 1.42187,-0.60938 2.75,-0.90625 1.34375,-0.3125 2.60937,-0.3125 3.42188,0 5.10938,1.96875 1.6875,1.96875 1.6875,5.96875 z"
         style="font-style:normal;font-variant:normal;font-weight:normal;font-stretch:semi-condensed;font-size:32px;line-height:1.25;font-family:'DejaVu Sans';-inkscape-font-specification:'DejaVu Sans Semi-Condensed'"
         id="path899" />
      <path
         d="m 545.23216,508.97827 q -0.4375,-0.28125 -0.95312,-0.40625 -0.51563,-0.14062 -1.125,-0.14062 -2.20313,0 -3.375,1.59375 -1.17188,1.57812 -1.17188,4.54687 v 9.21875 h -2.60937 v -17.5 h 2.60937 v 2.71875 q 0.8125,-1.59375 2.125,-2.35937 1.3125,-0.78125 3.17188,-0.78125 0.26562,0 0.59375,0.0469 0.32812,0.0312 0.71875,0.10938 z"
         style="font-style:normal;font-variant:normal;font-weight:normal;font-stretch:semi-condensed;font-size:32px;line-height:1.25;font-family:'DejaVu Sans';-inkscape-font-specification:'DejaVu Sans Semi-Condensed'"
         id="path901" />
      <path
         d="m 554.48216,525.41577 q -1.09375,3.125 -2.14062,4.07813 -1.03125,0.95312 -2.78125,0.95312 h -2.0625 v -2.40625 h 1.51562 q 1.0625,0 1.65625,-0.5625 0.59375,-0.5625 1.3125,-2.65625 l 0.46875,-1.3125 -6.375,-17.21875 h 2.73438 l 4.92187,13.6875 4.92188,-13.6875 h 2.75 z"
         style="font-style:normal;font-variant:normal;font-weight:normal;font-stretch:semi-condensed;font-size:32px;line-height:1.25;font-family:'DejaVu Sans';-inkscape-font-specification:'DejaVu Sans Semi-Condensed'"
         id="path903" />
      <path
         d="m 586.52904,506.83765 v 4.5625 q -1.01563,-0.78125 -2.0625,-1.15625 -1.03125,-0.375 -2.14063,-0.375 -2.10937,0 -3.28125,1.375 -1.17187,1.35937 -1.17187,3.8125 0,2.45312 1.17187,3.82812 1.17188,1.35938 3.28125,1.35938 1.1875,0 2.25,-0.39063 1.0625,-0.39062 1.95313,-1.15625 v 4.57813 q -1.17188,0.48437 -2.39063,0.71875 -1.21875,0.25 -2.4375,0.25 -4.26562,0 -6.67187,-2.42188 -2.40625,-2.4375 -2.40625,-6.76562 0,-4.32813 2.40625,-6.75 2.40625,-2.4375 6.67187,-2.4375 1.23438,0 2.4375,0.25 1.20313,0.23437 2.39063,0.71875 z"
         style="font-style:normal;font-variant:normal;font-weight:bold;font-stretch:semi-condensed;font-family:'DejaVu Sans';-inkscape-font-specification:'DejaVu Sans Bold Semi-Condensed';fill:#39737c;fill-opacity:1"
         id="path905" />
      <path
         d="m 598.35716,509.8689 q -1.67187,0 -2.54687,1.34375 -0.875,1.32812 -0.875,3.84375 0,2.51562 0.875,3.85937 0.875,1.32813 2.54687,1.32813 1.65625,0 2.51563,-1.32813 0.875,-1.34375 0.875,-3.85937 0,-2.51563 -0.875,-3.84375 -0.85938,-1.34375 -2.51563,-1.34375 z m 0,-4 q 4.07813,0 6.35938,2.4375 2.28125,2.4375 2.28125,6.75 0,4.3125 -2.28125,6.75 -2.28125,2.4375 -6.35938,2.4375 -4.0625,0 -6.375,-2.4375 -2.29687,-2.4375 -2.29687,-6.75 0,-4.3125 2.29687,-6.75 2.3125,-2.4375 6.375,-2.4375 z"
         style="font-style:normal;font-variant:normal;font-weight:bold;font-stretch:semi-condensed;font-family:'DejaVu Sans';-inkscape-font-specification:'DejaVu Sans Bold Semi-Condensed';fill:#39737c;fill-opacity:1"
         id="path907" />
      <path
         d="m 626.37279,514.9939 v 1.59375 h -11.76563 q 0.17188,1.96875 1.26563,2.95312 1.10937,0.98438 3.07812,0.98438 1.59375,0 3.25,-0.51563 1.67188,-0.53125 3.42188,-1.59375 v 4.3125 q -1.78125,0.75 -3.57813,1.125 -1.78125,0.39063 -3.5625,0.39063 -4.28125,0 -6.65625,-2.40625 -2.35937,-2.42188 -2.35937,-6.78125 0,-4.28125 2.32812,-6.73438 2.32813,-2.45312 6.40625,-2.45312 3.71875,0 5.9375,2.48437 2.23438,2.48438 2.23438,6.64063 z m -5.17188,-1.85938 q 0,-1.59375 -0.84375,-2.5625 -0.82812,-0.98437 -2.1875,-0.98437 -1.45312,0 -2.375,0.92187 -0.90625,0.90625 -1.14062,2.625 z"
         style="font-style:normal;font-variant:normal;font-weight:bold;font-stretch:semi-condensed;font-family:'DejaVu Sans';-inkscape-font-specification:'DejaVu Sans Bold Semi-Condensed';fill:#39737c;fill-opacity:1"
         id="path909" />
      <path
         d="m 628.20091,506.29077 h 5.03125 l 3.92188,12.09375 3.90625,-12.09375 h 5.04687 l -6.1875,17.5 h -5.53125 z"
         style="font-style:normal;font-variant:normal;font-weight:bold;font-stretch:semi-condensed;font-family:'DejaVu Sans';-inkscape-font-specification:'DejaVu Sans Bold Semi-Condensed';fill:#39737c;fill-opacity:1"
         id="path911" />
      <path
         d="m 656.01341,515.91577 q -1.57812,0 -2.375,0.59375 -0.79687,0.59375 -0.79687,1.75 0,1.0625 0.64062,1.67188 0.64063,0.59375 1.78125,0.59375 1.42188,0 2.39063,-1.125 0.96875,-1.14063 0.96875,-2.84375 v -0.64063 z m 7.6875,-2.10937 v 9.98437 h -5.07812 v -2.59375 q -1.01563,1.59375 -2.28125,2.32813 -1.26563,0.71875 -3.07813,0.71875 -2.45312,0 -3.98437,-1.57813 -1.51563,-1.59375 -1.51563,-4.125 0,-3.07812 1.90625,-4.51562 1.90625,-1.4375 5.98438,-1.4375 h 2.96875 v -0.4375 q 0,-1.32813 -0.95313,-1.9375 -0.9375,-0.625 -2.92187,-0.625 -1.625,0 -3.01563,0.35937 -1.39062,0.35938 -2.59375,1.07813 v -4.26563 q 1.625,-0.4375 3.25,-0.65625 1.64063,-0.23437 3.26563,-0.23437 4.26562,0 6.15625,1.875 1.89062,1.85937 1.89062,6.0625 z"
         style="font-style:normal;font-variant:normal;font-weight:bold;font-stretch:semi-condensed;font-family:'DejaVu Sans';-inkscape-font-specification:'DejaVu Sans Bold Semi-Condensed';fill:#39737c;fill-opacity:1"
         id="path913" />
      <path
         d="m 668.37279,499.47827 h 5.03125 v 24.3125 h -5.03125 z"
         style="font-style:normal;font-variant:normal;font-weight:bold;font-stretch:semi-condensed;font-family:'DejaVu Sans';-inkscape-font-specification:'DejaVu Sans Bold Semi-Condensed';fill:#39737c;fill-opacity:1"
         id="path915" />
      <path
         d="m 678.23216,506.29077 h 5.03125 v 17.5 h -5.03125 z m 0,-6.8125 h 5.03125 v 4.5625 h -5.03125 z"
         style="font-style:normal;font-variant:normal;font-weight:bold;font-stretch:semi-condensed;font-family:'DejaVu Sans';-inkscape-font-specification:'DejaVu Sans Bold Semi-Condensed';fill:#39737c;fill-opacity:1"
         id="path917" />
      <path
         d="m 693.59154,501.32202 v 4.96875 h 5.1875 v 4 h -5.1875 v 7.42188 q 0,1.21875 0.42187,1.65625 0.4375,0.42187 1.73438,0.42187 h 2.59375 v 4 h -4.3125 q -2.98438,0 -4.23438,-1.375 -1.25,-1.39062 -1.25,-4.70312 v -7.42188 h -2.5 v -4 h 2.5 v -4.96875 z"
         style="font-style:normal;font-variant:normal;font-weight:bold;font-stretch:semi-condensed;font-family:'DejaVu Sans';-inkscape-font-specification:'DejaVu Sans Bold Semi-Condensed';fill:#39737c;fill-opacity:1"
         id="path919" />
      <path
         d="m 699.77904,506.29077 h 5.04687 l 4.23438,11.875 3.59375,-11.875 h 5.03125 l -6.625,19.15625 q -1,2.92188 -2.32813,4.07813 -1.32812,1.17187 -3.5,1.17187 h -2.92187 v -3.67187 h 1.57812 q 1.28125,0 1.85938,-0.45313 0.59375,-0.45312 0.92187,-1.625 l 0.14063,-0.48437 z"
         style="font-style:normal;font-variant:normal;font-weight:bold;font-stretch:semi-condensed;font-family:'DejaVu Sans';-inkscape-font-specification:'DejaVu Sans Bold Semi-Condensed';fill:#39737c;fill-opacity:1"
         id="path921" />
    </g>
  </g>
</svg>
