<?xml version="1.0" encoding="UTF-8" standalone="no"?>
<svg
   xmlns:dc="http://purl.org/dc/elements/1.1/"
   xmlns:cc="http://creativecommons.org/ns#"
   xmlns:rdf="http://www.w3.org/1999/02/22-rdf-syntax-ns#"
   xmlns:svg="http://www.w3.org/2000/svg"
   xmlns="http://www.w3.org/2000/svg"
   xmlns:sodipodi="http://sodipodi.sourceforge.net/DTD/sodipodi-0.dtd"
   xmlns:inkscape="http://www.inkscape.org/namespaces/inkscape"
   width="51.660583mm"
   height="9.6366205mm"
   viewBox="0 0 183.04931 34.145506"
   id="svg2"
   version="1.1"
   inkscape:version="1.0.2 (e86c870879, 2021-01-15)"
   sodipodi:docname="ecoevolity-logo-short.svg">
  <defs
     id="defs4" />
  <sodipodi:namedview
     id="base"
     pagecolor="#ffffff"
     bordercolor="#666666"
     borderopacity="1.0"
     inkscape:pageopacity="0.0"
     inkscape:pageshadow="2"
     inkscape:zoom="1.4"
     inkscape:cx="164.34058"
     inkscape:cy="-29.589148"
     inkscape:document-units="px"
     inkscape:current-layer="layer1"
     showgrid="false"
     fit-margin-top="0"
     fit-margin-left="0"
     fit-margin-right="0"
     fit-margin-bottom="0"
     inkscape:window-width="1920"
     inkscape:window-height="1016"
     inkscape:window-x="0"
     inkscape:window-y="27"
     inkscape:window-maximized="1"
     inkscape:document-rotation="0" />
  <metadata
     id="metadata7">
    <rdf:RDF>
      <cc:Work
         rdf:about="">
        <dc:format>image/svg+xml</dc:format>
        <dc:type
           rdf:resource="http://purl.org/dc/dcmitype/StillImage" />
        <dc:title />
      </cc:Work>
    </rdf:RDF>
  </metadata>
  <g
     inkscape:label="Layer 1"
     inkscape:groupmode="layer"
     id="layer1"
     transform="translate(-9.2380199,-497.19897)">
    <g
       aria-label="Ecoevolity"
       id="text4136"
       style="font-style:normal;font-weight:normal;line-height:0%;font-family:sans-serif;letter-spacing:0px;word-spacing:0px;fill:#000000;fill-opacity:1;stroke:none;stroke-width:1px;stroke-linecap:butt;stroke-linejoin:miter;stroke-opacity:1">
      <path
         d="m 13.715559,498.27563 h 15.961914 l -0.871582,4.97315 H 18.757063 l -0.837402,4.75098 h 9.467773 l -0.905762,4.97314 h -9.433593 l -1.025391,5.84473 h 10.373535 l -0.837402,4.97314 H 9.2380199 Z"
         style="font-style:oblique;font-variant:normal;font-weight:bold;font-stretch:semi-condensed;font-size:35px;font-family:'DejaVu Sans';-inkscape-font-specification:'DejaVu Sans Bold Oblique Semi-Condensed';fill:#32a251;fill-opacity:1"
         id="path835" />
      <path
         d="m 48.390852,505.24829 -0.871582,4.99024 q -1.11084,-0.82032 -2.1875,-1.24756 -1.07666,-0.42725 -2.102051,-0.42725 -2.700195,0 -4.40918,2.0166 -1.708984,1.99951 -1.708984,5.12696 0,1.99951 1.05957,3.11035 1.076661,1.09375 3.007813,1.09375 1.281738,0 2.529297,-0.42725 1.247558,-0.42725 2.375488,-1.26465 l -0.854492,5.00733 q -1.367188,0.52978 -2.751465,0.78613 -1.384277,0.27344 -2.785644,0.27344 -4.050293,0 -6.254883,-2.0166 -2.1875,-2.0337 -2.1875,-5.75928 0,-2.34131 0.803222,-4.5459 0.820313,-2.20459 2.324219,-3.96484 1.674805,-1.93116 3.845215,-2.8711 2.17041,-0.93994 5.007324,-0.93994 1.298828,0 2.580567,0.27344 1.298828,0.25635 2.580566,0.78613 z"
         style="font-style:oblique;font-variant:normal;font-weight:bold;font-stretch:semi-condensed;font-size:35px;font-family:'DejaVu Sans';-inkscape-font-specification:'DejaVu Sans Bold Oblique Semi-Condensed';fill:#39737c;fill-opacity:1"
         id="path837" />
      <path
         d="m 60.558821,508.56372 q -2.136231,0 -3.520508,2.15332 -1.384277,2.15332 -1.384277,5.48584 0,1.81152 0.734863,2.76856 0.751953,0.93994 2.1875,0.93994 2.13623,0 3.520508,-2.15332 1.384277,-2.17041 1.384277,-5.52002 0,-1.79444 -0.751953,-2.73438 -0.734863,-0.93994 -2.17041,-0.93994 z m 0.444336,-4.375 q 3.845215,0 6.049804,2.17041 2.20459,2.17041 2.20459,5.91309 0,2.17041 -0.700683,4.22119 -0.683594,2.03369 -2.016602,3.72558 -1.555176,2.01661 -3.708496,3.042 -2.136231,1.02539 -4.768066,1.02539 -3.793946,0 -5.981446,-2.17041 -2.1875,-2.17041 -2.1875,-5.91309 0,-2.15332 0.700684,-4.2041 0.700683,-2.06787 2.033691,-3.77686 1.538086,-1.98242 3.657227,-3.00781 2.13623,-1.02539 4.716797,-1.02539 z"
         style="font-style:oblique;font-variant:normal;font-weight:bold;font-stretch:semi-condensed;font-size:35px;font-family:'DejaVu Sans';-inkscape-font-specification:'DejaVu Sans Bold Oblique Semi-Condensed';fill:#39737c;fill-opacity:1"
         id="path839" />
      <path
         d="m 90.19261,514.93823 -0.187988,0.97412 H 77.118879 q 0,0.10254 -0.01709,0.30762 -0.01709,0.18799 -0.01709,0.29053 0,1.86279 1.0083,2.78564 1.008301,0.92285 3.024903,0.92285 1.743164,0 3.674316,-0.58105 1.931153,-0.58106 4.050293,-1.72607 l -0.854492,4.75097 q -1.999512,0.82031 -3.999023,1.21338 -1.982422,0.41016 -4.050293,0.41016 -4.033204,0 -6.220704,-2.06787 -2.1875,-2.06788 -2.1875,-5.84473 0,-2.1875 0.683594,-4.23828 0.700684,-2.06787 2.050781,-3.77686 1.589356,-2.05078 3.793946,-3.11035 2.20459,-1.05957 4.887695,-1.05957 3.503418,0 5.554199,2.06787 2.050782,2.06787 2.050782,5.57129 0,0.68359 -0.08545,1.45264 -0.08545,0.75195 -0.273437,1.65771 z m -5.195313,-2.80273 q 0.05127,-0.22217 0.06836,-0.44434 0.01709,-0.23926 0.01709,-0.46142 0,-1.36719 -0.734864,-2.17041 -0.734863,-0.80323 -1.999511,-0.80323 -1.606446,0 -2.751465,0.99121 -1.12793,0.97413 -1.726075,2.88819 z"
         style="font-style:oblique;font-variant:normal;font-weight:bold;font-stretch:semi-condensed;font-size:35px;font-family:'DejaVu Sans';-inkscape-font-specification:'DejaVu Sans Bold Oblique Semi-Condensed';fill:#b85a0d;fill-opacity:1"
         id="path841" />
      <path
         d="m 93.730207,504.65015 h 5.075684 l 2.238769,13.36425 6.47705,-13.36425 h 5.58838 l -10.11719,19.14062 h -5.827634 z"
         style="font-style:oblique;font-variant:normal;font-weight:bold;font-stretch:semi-condensed;font-size:35px;font-family:'DejaVu Sans';-inkscape-font-specification:'DejaVu Sans Bold Oblique Semi-Condensed';fill:#b85a0d;fill-opacity:1"
         id="path843" />
      <path
         d="m 124.08177,508.56372 q -2.13623,0 -3.52051,2.15332 -1.38428,2.15332 -1.38428,5.48584 0,1.81152 0.73487,2.76856 0.75195,0.93994 2.1875,0.93994 2.13623,0 3.52051,-2.15332 1.38427,-2.17041 1.38427,-5.52002 0,-1.79444 -0.75195,-2.73438 -0.73486,-0.93994 -2.17041,-0.93994 z m 0.44434,-4.375 q 3.84521,0 6.0498,2.17041 2.20459,2.17041 2.20459,5.91309 0,2.17041 -0.70068,4.22119 -0.6836,2.03369 -2.0166,3.72558 -1.55518,2.01661 -3.7085,3.042 -2.13623,1.02539 -4.76807,1.02539 -3.79394,0 -5.98144,-2.17041 -2.1875,-2.17041 -2.1875,-5.91309 0,-2.15332 0.70068,-4.2041 0.70068,-2.06787 2.03369,-3.77686 1.53809,-1.98242 3.65723,-3.00781 2.13623,-1.02539 4.7168,-1.02539 z"
         style="font-style:oblique;font-variant:normal;font-weight:bold;font-stretch:semi-condensed;font-size:35px;font-family:'DejaVu Sans';-inkscape-font-specification:'DejaVu Sans Bold Oblique Semi-Condensed';fill:#b85a0d;fill-opacity:1"
         id="path845" />
      <path
         d="m 139.5139,497.19897 h 5.53711 l -4.64844,26.5918 h -5.52002 z"
         style="font-style:oblique;font-variant:normal;font-weight:bold;font-stretch:semi-condensed;font-size:35px;font-family:'DejaVu Sans';-inkscape-font-specification:'DejaVu Sans Bold Oblique Semi-Condensed';fill:#39737c;fill-opacity:1"
         id="path847" />
      <path
         d="m 149.01585,504.65015 h 5.53711 l -3.3667,19.14062 h -5.52002 z m 1.28174,-7.45118 h 5.53711 l -0.87158,4.99024 h -5.5542 z"
         style="font-style:oblique;font-variant:normal;font-weight:bold;font-stretch:semi-condensed;font-size:35px;font-family:'DejaVu Sans';-inkscape-font-specification:'DejaVu Sans Bold Oblique Semi-Condensed';fill:#39737c;fill-opacity:1"
         id="path849" />
      <path
         d="m 166.80638,499.21558 -0.93994,5.43457 h 5.63965 l -0.78614,4.375 h -5.63964 l -1.40137,8.10058 q -0.0684,0.27344 -0.10254,0.46143 -0.0171,0.18799 -0.0171,0.35888 0,0.78614 0.46142,1.12793 0.47852,0.3418 1.58936,0.3418 h 2.854 l -0.78613,4.375 h -4.63135 q -2.49511,0 -3.81103,-1.16211 -1.29883,-1.16211 -1.29883,-3.34961 0,-0.47851 0.0342,-1.02539 0.0513,-0.54687 0.15381,-1.11084 l 1.41846,-8.11767 h -2.71729 l 0.75195,-4.375 h 2.75147 l 0.93994,-5.43457 z"
         style="font-style:oblique;font-variant:normal;font-weight:bold;font-stretch:semi-condensed;font-size:35px;font-family:'DejaVu Sans';-inkscape-font-specification:'DejaVu Sans Bold Oblique Semi-Condensed';fill:#39737c;fill-opacity:1"
         id="path851" />
      <path
         d="m 172.61693,504.65015 h 5.19531 l 2.3584,13.26172 6.11816,-13.26172 h 5.87891 l -10.90332,20.95214 q -1.82862,3.5376 -3.38379,4.63135 -1.55518,1.11084 -4.01612,1.11084 h -3.33251 l 0.56396,-4.01611 h 1.74316 q 1.3501,0 2.10205,-0.5127 0.75196,-0.4956 1.33301,-1.76025 l 0.49561,-1.02539 z"
         style="font-style:oblique;font-variant:normal;font-weight:bold;font-stretch:semi-condensed;font-size:35px;font-family:'DejaVu Sans';-inkscape-font-specification:'DejaVu Sans Bold Oblique Semi-Condensed';fill:#39737c;fill-opacity:1"
         id="path853" />
    </g>
  </g>
</svg>
